<?xml version="1.0" encoding="UTF-8" standalone="no"?>
<!-- Created with Inkscape (http://www.inkscape.org/) -->

<svg
   xmlns:dc="http://purl.org/dc/elements/1.1/"
   xmlns:cc="http://creativecommons.org/ns#"
   xmlns:rdf="http://www.w3.org/1999/02/22-rdf-syntax-ns#"
   xmlns:svg="http://www.w3.org/2000/svg"
   xmlns="http://www.w3.org/2000/svg"
   xmlns:sodipodi="http://sodipodi.sourceforge.net/DTD/sodipodi-0.dtd"
   xmlns:inkscape="http://www.inkscape.org/namespaces/inkscape"
   width="744.09448819"
   height="1052.3622047"
   id="svg2"
   version="1.1"
   inkscape:version="0.48.3.1 r9886"
   sodipodi:docname="New document 1">
  <defs
     id="defs4" />
  <sodipodi:namedview
     id="base"
     pagecolor="#ffffff"
     bordercolor="#666666"
     borderopacity="1.0"
     inkscape:pageopacity="0.0"
     inkscape:pageshadow="2"
     inkscape:zoom="0.98994949"
     inkscape:cx="303.67196"
     inkscape:cy="558.79814"
     inkscape:document-units="px"
     inkscape:current-layer="layer1"
     showgrid="false"
     inkscape:window-width="1440"
     inkscape:window-height="829"
     inkscape:window-x="-2"
     inkscape:window-y="-3"
     inkscape:window-maximized="1" />
  <metadata
     id="metadata7">
    <rdf:RDF>
      <cc:Work
         rdf:about="">
        <dc:format>image/svg+xml</dc:format>
        <dc:type
           rdf:resource="http://purl.org/dc/dcmitype/StillImage" />
        <dc:title></dc:title>
      </cc:Work>
    </rdf:RDF>
  </metadata>
  <g
     inkscape:label="Layer 1"
     inkscape:groupmode="layer"
     id="layer1">
    <rect
       style="fill:none;fill-opacity:1;stroke:#000000;stroke-opacity:1"
       id="rect2985"
       width="625.28442"
       height="483.86307"
       x="47.477169"
       y="196.76297" />
    <path
       style="fill:none;stroke:#00ff00;stroke-width:1px;stroke-linecap:butt;stroke-linejoin:miter;stroke-opacity:1"
       d="m 266.68027,262.42289 c -17.88208,19.12018 -26.36513,37.57797 -36.36549,57.5787 -3.42037,6.84073 -3.64334,16.37805 -7.07107,23.23351 -2.21888,4.43776 0,11.72718 0,15.15228 0,0.37565 -0.46191,6.84012 0,7.07107 4.33919,2.16959 14.68805,19.27458 17.1726,24.24366 1.83543,3.67088 42.69233,35.99338 49.49747,39.39595 3.86737,1.93369 10.21771,2.39575 15.15229,4.04061 2.51934,0.83978 6.71399,-1.18869 9.09137,0 19.22261,9.61131 44.28566,-2.48512 62.62946,-7.07107 6.21616,-1.55404 17.74132,0.72579 23.23351,-2.0203 6.86819,-3.4341 23.21583,-5.05518 31.31473,-3.03046 23.36662,5.84166 67.93542,22.47856 83.84266,38.3858 14.74902,14.74902 15.41048,35.37795 20.20305,54.54824 2.51412,10.05647 3.46488,20.34436 -1.01015,29.29442 -0.82277,1.64552 0.44215,7.19691 -1.01016,10.10153 -2.61143,5.22285 -12.44583,9.73937 -15.15228,15.15228"
       id="path3936"
       inkscape:connector-curvature="0" />
    <path
       style="fill:none;stroke:#ff0000;stroke-width:1px;stroke-linecap:butt;stroke-linejoin:miter;stroke-opacity:1"
       d="m 520.22856,565.46866 c 0,0 22.22336,-24.24367 1.01015,-58.58885 -21.2132,-34.34519 -48.48732,-53.53809 -90.91373,-64.64976 -42.4264,-11.11168 -82.8325,-25.25382 -117.17769,-16.16245 -34.34519,9.09138 -71.72083,-49.49747 -73.74114,-80.8122 -2.0203,-31.31473 8.08122,-73.74113 33.33504,-80.8122"
       id="path3938"
       inkscape:connector-curvature="0" />
    <path
       sodipodi:type="arc"
       style="fill:#000000;fill-opacity:1;stroke:none;stroke-opacity:1"
       id="path3940"
       sodipodi:cx="225.76909"
       sodipodi:cy="296.76807"
       sodipodi:rx="5.5558391"
       sodipodi:ry="7.0710678"
       d="m 222.08191,302.05747 a 5.5558391,7.0710678 0 1 1 0.0968,0.10678"
       sodipodi:start="2.2964962"
       sodipodi:end="8.5566267"
       sodipodi:open="true" />
    <path
       transform="translate(41.921336,-34.345187)"
       sodipodi:type="arc"
       style="fill:#000000;fill-opacity:1;stroke:none;stroke-opacity:1"
       id="path3940-0"
       sodipodi:cx="225.76909"
       sodipodi:cy="296.76807"
       sodipodi:rx="5.5558391"
       sodipodi:ry="7.0710678"
       d="m 222.08191,302.05747 a 5.5558391,7.0710678 0 1 1 0.0968,0.10678"
       sodipodi:start="2.2964962"
       sodipodi:end="8.5566267"
       sodipodi:open="true" />
    <path
       transform="translate(22.728437,49.497474)"
       sodipodi:type="arc"
       style="fill:#000000;fill-opacity:1;stroke:none;stroke-opacity:1"
       id="path3940-2"
       sodipodi:cx="225.76909"
       sodipodi:cy="296.76807"
       sodipodi:rx="5.5558391"
       sodipodi:ry="7.0710678"
       d="m 222.08191,302.05747 a 5.5558391,7.0710678 0 1 1 0.0968,0.10678"
       sodipodi:start="2.2964962"
       sodipodi:end="8.5566267"
       sodipodi:open="true" />
    <path
       transform="translate(-18.687817,81.822356)"
       sodipodi:type="arc"
       style="fill:#000000;fill-opacity:1;stroke:none;stroke-opacity:1"
       id="path3940-29"
       sodipodi:cx="225.76909"
       sodipodi:cy="296.76807"
       sodipodi:rx="5.5558391"
       sodipodi:ry="7.0710678"
       d="m 222.08191,302.05747 a 5.5558391,7.0710678 0 1 1 0.0968,0.10678"
       sodipodi:start="2.2964962"
       sodipodi:end="8.5566267"
       sodipodi:open="true" />
    <path
       transform="translate(44.951793,149.50258)"
       sodipodi:type="arc"
       style="fill:#000000;fill-opacity:1;stroke:none;stroke-opacity:1"
       id="path3940-7"
       sodipodi:cx="225.76909"
       sodipodi:cy="296.76807"
       sodipodi:rx="5.5558391"
       sodipodi:ry="7.0710678"
       d="m 222.08191,302.05747 a 5.5558391,7.0710678 0 1 1 0.0968,0.10678"
       sodipodi:start="2.2964962"
       sodipodi:end="8.5566267"
       sodipodi:open="true" />
    <path
       transform="translate(95.459421,157.5838)"
       sodipodi:type="arc"
       style="fill:#000000;fill-opacity:1;stroke:none;stroke-opacity:1"
       id="path3940-9"
       sodipodi:cx="225.76909"
       sodipodi:cy="296.76807"
       sodipodi:rx="5.5558391"
       sodipodi:ry="7.0710678"
       d="m 222.08191,302.05747 a 5.5558391,7.0710678 0 1 1 0.0968,0.10678"
       sodipodi:start="2.2964962"
       sodipodi:end="8.5566267"
       sodipodi:open="true" />
    <path
       transform="translate(119.70308,117.17769)"
       sodipodi:type="arc"
       style="fill:#000000;fill-opacity:1;stroke:none;stroke-opacity:1"
       id="path3940-5"
       sodipodi:cx="225.76909"
       sodipodi:cy="296.76807"
       sodipodi:rx="5.5558391"
       sodipodi:ry="7.0710678"
       d="m 222.08191,302.05747 a 5.5558391,7.0710678 0 1 1 0.0968,0.10678"
       sodipodi:start="2.2964962"
       sodipodi:end="8.5566267"
       sodipodi:open="true" />
    <path
       transform="translate(173.24117,112.12693)"
       sodipodi:type="arc"
       style="fill:#000000;fill-opacity:1;stroke:none;stroke-opacity:1"
       id="path3940-8"
       sodipodi:cx="225.76909"
       sodipodi:cy="296.76807"
       sodipodi:rx="5.5558391"
       sodipodi:ry="7.0710678"
       d="m 222.08191,302.05747 a 5.5558391,7.0710678 0 1 1 0.0968,0.10678"
       sodipodi:start="2.2964962"
       sodipodi:end="8.5566267"
       sodipodi:open="true" />
    <path
       transform="translate(204.5559,144.45181)"
       sodipodi:type="arc"
       style="fill:#000000;fill-opacity:1;stroke:none;stroke-opacity:1"
       id="path3940-54"
       sodipodi:cx="225.76909"
       sodipodi:cy="296.76807"
       sodipodi:rx="5.5558391"
       sodipodi:ry="7.0710678"
       d="m 222.08191,302.05747 a 5.5558391,7.0710678 0 1 1 0.0968,0.10678"
       sodipodi:start="2.2964962"
       sodipodi:end="8.5566267"
       sodipodi:open="true" />
    <path
       transform="translate(262.13459,131.31983)"
       sodipodi:type="arc"
       style="fill:#000000;fill-opacity:1;stroke:none;stroke-opacity:1"
       id="path3940-1"
       sodipodi:cx="225.76909"
       sodipodi:cy="296.76807"
       sodipodi:rx="5.5558391"
       sodipodi:ry="7.0710678"
       d="m 222.08191,302.05747 a 5.5558391,7.0710678 0 1 1 0.0968,0.10678"
       sodipodi:start="2.2964962"
       sodipodi:end="8.5566267"
       sodipodi:open="true" />
    <path
       transform="translate(268.19551,190.91883)"
       sodipodi:type="arc"
       style="fill:#000000;fill-opacity:1;stroke:none;stroke-opacity:1"
       id="path3940-76"
       sodipodi:cx="225.76909"
       sodipodi:cy="296.76807"
       sodipodi:rx="5.5558391"
       sodipodi:ry="7.0710678"
       d="m 222.08191,302.05747 a 5.5558391,7.0710678 0 1 1 0.0968,0.10678"
       sodipodi:start="2.2964962"
       sodipodi:end="8.5566267"
       sodipodi:open="true" />
    <path
       transform="translate(331.83512,217.1828)"
       sodipodi:type="arc"
       style="fill:#000000;fill-opacity:1;stroke:none;stroke-opacity:1"
       id="path3940-3"
       sodipodi:cx="225.76909"
       sodipodi:cy="296.76807"
       sodipodi:rx="5.5558391"
       sodipodi:ry="7.0710678"
       d="m 222.08191,302.05747 a 5.5558391,7.0710678 0 1 1 0.0968,0.10678"
       sodipodi:start="2.2964962"
       sodipodi:end="8.5566267"
       sodipodi:open="true" />
    <path
       transform="translate(293.44932,270.72088)"
       sodipodi:type="arc"
       style="fill:#000000;fill-opacity:1;stroke:none;stroke-opacity:1"
       id="path3940-16"
       sodipodi:cx="225.76909"
       sodipodi:cy="296.76807"
       sodipodi:rx="5.5558391"
       sodipodi:ry="7.0710678"
       d="m 222.08191,302.05747 a 5.5558391,7.0710678 0 1 1 0.0968,0.10678"
       sodipodi:start="2.2964962"
       sodipodi:end="8.5566267"
       sodipodi:open="true" />
  </g>
</svg>
