<?xml version="1.0" encoding="UTF-8" standalone="no"?>
<!-- Created with Inkscape (http://www.inkscape.org/) -->

<svg
   xmlns:dc="http://purl.org/dc/elements/1.1/"
   xmlns:cc="http://creativecommons.org/ns#"
   xmlns:rdf="http://www.w3.org/1999/02/22-rdf-syntax-ns#"
   xmlns:svg="http://www.w3.org/2000/svg"
   xmlns="http://www.w3.org/2000/svg"
   xmlns:sodipodi="http://sodipodi.sourceforge.net/DTD/sodipodi-0.dtd"
   xmlns:inkscape="http://www.inkscape.org/namespaces/inkscape"
   width="744.09448819"
   height="1052.3622047"
   id="svg3249"
   version="1.1"
   inkscape:version="0.48.3.1 r9886"
   sodipodi:docname="New document 2">
  <defs
     id="defs3251" />
  <sodipodi:namedview
     id="base"
     pagecolor="#ffffff"
     bordercolor="#666666"
     borderopacity="1.0"
     inkscape:pageopacity="0.0"
     inkscape:pageshadow="2"
     inkscape:zoom="0.98994949"
     inkscape:cx="192.95697"
     inkscape:cy="520"
     inkscape:document-units="px"
     inkscape:current-layer="layer1"
     showgrid="false"
     inkscape:window-width="1440"
     inkscape:window-height="823"
     inkscape:window-x="-3"
     inkscape:window-y="-3"
     inkscape:window-maximized="1" />
  <metadata
     id="metadata3254">
    <rdf:RDF>
      <cc:Work
         rdf:about="">
        <dc:format>image/svg+xml</dc:format>
        <dc:type
           rdf:resource="http://purl.org/dc/dcmitype/StillImage" />
        <dc:title></dc:title>
      </cc:Work>
    </rdf:RDF>
  </metadata>
  <g
     inkscape:label="Layer 1"
     inkscape:groupmode="layer"
     id="layer1">
    <rect
       style="fill:none;fill-opacity:1;stroke:#000000;stroke-width:1;stroke-miterlimit:4;stroke-opacity:1;stroke-dasharray:none;stroke-dashoffset:0"
       id="rect3257"
       width="547.14288"
       height="241.42857"
       x="62.857143"
       y="315.21933" />
    <path
       style="fill:none;stroke:#000000;stroke-width:1px;stroke-linecap:butt;stroke-linejoin:miter;stroke-opacity:1"
       d="m 62.629458,436.16914 107.076172,-88.89343 91.92388,83.84266 197.9899,26.26397 150.00765,2.0203"
       id="path4033"
       inkscape:connector-curvature="0"
       sodipodi:nodetypes="ccccc" />
    <path
       style="fill:none;stroke:#000000;stroke-width:1px;stroke-linecap:butt;stroke-linejoin:miter;stroke-opacity:1"
       d="m 63.639608,500.31382 107.076172,-88.89343 91.92388,83.84266 197.9899,26.26397 148.49242,2.0203"
       id="path4033-9"
       inkscape:connector-curvature="0" />
    <rect
       style="fill:none;stroke:#000000;stroke-width:1;stroke-miterlimit:4;stroke-opacity:1;stroke-dasharray:none;stroke-dashoffset:0"
       id="rect3257-5"
       width="547.14288"
       height="241.42857"
       x="62.923199"
       y="556.88129" />
    <path
       style="fill:none;stroke:#000000;stroke-width:1px;stroke-linecap:butt;stroke-linejoin:miter;stroke-opacity:1"
       d="m 62.695514,677.83111 109.096476,-52.52794 89.90357,47.47717 197.9899,26.26397 148.49242,2.0203"
       id="path4033-1"
       inkscape:connector-curvature="0"
       sodipodi:nodetypes="ccccc" />
    <path
       style="fill:none;stroke:#000000;stroke-width:1px;stroke-linecap:butt;stroke-linejoin:miter;stroke-opacity:1"
       d="m 63.705664,741.97579 107.076166,-88.89343 91.92388,83.84266 197.9899,26.26397 148.49242,2.0203"
       id="path4033-9-6"
       inkscape:connector-curvature="0" />
    <path
       style="fill:#d45500;fill-opacity:1;stroke:#000000;stroke-width:1.01015258;stroke-miterlimit:4;stroke-opacity:1;stroke-dasharray:none;stroke-dashoffset:0"
       d="m 63.743708,528.37208 0.07272,-27.02158 46.141762,-38.16948 c 25.37796,-20.99322 49.41092,-40.89475 53.40656,-44.22562 l 7.26481,-6.05614 45.09264,41.19516 c 24.80095,22.65734 46.07849,41.54099 47.28342,41.96367 1.20494,0.42268 45.37482,6.51457 98.15529,13.53752 l 95.96449,12.76901 76.01398,1.01111 76.01398,1.01113 0,15.5034 0,15.5034 -272.74119,0 -272.741187,0 0.07272,-27.02158 0,0 z"
       id="path4197"
       inkscape:connector-curvature="0" />
    <path
       style="fill:#d45500;fill-opacity:1;stroke:#000000;stroke-width:1.01015258;stroke-miterlimit:4;stroke-opacity:1;stroke-dasharray:none;stroke-dashoffset:0"
       d="m 63.670986,770.15818 0,-26.66193 53.140334,-44.11564 c 30.37983,-25.22049 53.71617,-43.89466 54.48475,-43.59972 0.73943,0.28374 21.41122,18.83751 45.93729,41.2306 24.52607,22.39309 45.12387,40.82459 45.77289,40.95888 0.64901,0.1343 45.72774,6.12169 100.17497,13.30531 l 98.99494,13.06112 60.10408,0.59552 c 33.05724,0.32754 66.12711,0.86433 73.4886,1.19286 l 13.38452,0.59733 0,15.0488 0,15.04881 -272.74119,0 -272.741184,0 0,-26.66194 z"
       id="path4199"
       inkscape:connector-curvature="0" />
    <path
       style="fill:#0000ff;fill-opacity:1;stroke:#000000;stroke-width:1.01015258;stroke-miterlimit:4;stroke-opacity:1;stroke-dasharray:none;stroke-dashoffset:0"
       d="m 528.34116,763.27784 -65.15484,-0.87925 -99.50003,-13.1247 c -54.72501,-7.2186 -99.77634,-13.22445 -100.11407,-13.34635 -0.33771,-0.12191 -21.13265,-18.97261 -46.21095,-41.89044 -25.0783,-22.91784 -46.04659,-41.66879 -46.59619,-41.66879 -0.54961,0 -24.75697,19.746 -53.79415,43.88 l -52.794868,43.88001 -0.267629,-30.42989 c -0.147196,-16.73644 0.08009,-30.75919 0.505076,-31.16167 1.220957,-1.15629 106.150831,-51.42227 107.343631,-51.42227 0.58858,0 20.91142,10.48425 45.16185,23.29833 l 44.09168,23.29832 98.56244,13.08795 98.56244,13.08796 61.11423,0.96929 c 33.61283,0.53311 67.59184,0.97833 75.50891,0.98937 l 14.39467,0.0201 0,31.31473 0,31.31473 -7.82868,-0.16907 c -4.30578,-0.093 -37.14836,-0.56473 -72.98352,-1.04833 z"
       id="path4201"
       inkscape:connector-curvature="0" />
    <path
       style="fill:#0000ff;fill-opacity:1;stroke:#000000;stroke-width:1.01015258;stroke-miterlimit:4;stroke-opacity:1;stroke-dasharray:none;stroke-dashoffset:0"
       d="m 498.83116,521.08244 -38.89087,-0.53904 -98.2989,-13.10786 -98.29891,-13.10786 -43.12245,-39.28065 c -23.71735,-21.60436 -44.5299,-40.61488 -46.25011,-42.24559 l -3.12765,-2.96494 -51.42058,42.61245 C 91.140364,475.8858 66.978322,495.98748 65.728259,497.11934 l -2.272844,2.05795 0.05035,-31.23828 0.05034,-31.23827 52.363705,-43.3986 c 28.80003,-23.86923 52.79315,-43.54175 53.31801,-43.7167 0.70935,-0.23645 62.53024,55.30121 89.1909,80.12588 2.38943,2.22489 8.3785,3.13661 101.52033,15.4546 l 98.98109,13.09024 40.91117,0.59199 c 22.50115,0.3256 56.25287,0.8712 75.00383,1.21242 l 34.09265,0.62043 0,30.68882 0,30.68881 -35.60788,-0.21858 c -19.58433,-0.12022 -53.10877,-0.46114 -74.49875,-0.75761 l 0,0 z"
       id="path4229"
       inkscape:connector-curvature="0" />
    <path
       style="fill:#808080;fill-opacity:1;stroke:#000000;stroke-width:1.01015258;stroke-miterlimit:4;stroke-opacity:1;stroke-dasharray:none;stroke-dashoffset:0"
       d="m 517.51898,457.23748 -57.57869,-0.85627 -98.97211,-13.13834 -98.97211,-13.13835 -4.06345,-3.88554 c -15.66398,-14.9782 -87.81643,-79.95591 -88.52005,-79.71775 -0.48084,0.16276 -24.14261,19.6151 -52.58171,43.22741 -28.439091,23.61232 -52.082741,43.08301 -52.541442,43.2682 -0.458702,0.1852 -0.834003,-26.06614 -0.834003,-58.33631 l 0,-58.67302 272.741185,0 272.74119,0 0,71.21575 0,71.21576 -16.92006,-0.16263 c -9.30603,-0.0894 -42.83046,-0.54795 -74.49875,-1.01891 z"
       id="path4231"
       inkscape:connector-curvature="0" />
    <path
       style="fill:#808080;fill-opacity:1;stroke:#000000;stroke-width:1.01015258;stroke-miterlimit:4;stroke-opacity:1;stroke-dasharray:none;stroke-dashoffset:0"
       d="m 506.40731,698.71156 -48.48733,-0.79845 -97.98479,-13.09488 -97.9848,-13.09488 -45.06603,-23.83419 -45.06602,-23.8342 -53.54837,25.77343 c -29.451594,14.17538 -53.833251,25.77342 -54.181455,25.77342 -0.348205,0 -0.6331,-26.59226 -0.6331,-59.09392 l 0,-59.09392 272.741185,0 272.74119,0 0,71.21575 0,71.21575 -27.02158,-0.16773 c -14.86187,-0.0922 -48.84088,-0.52704 -75.5089,-0.96618 z"
       id="path4233"
       inkscape:connector-curvature="0" />
    <g
       id="g4215"
       transform="translate(108.08632,30.304577)">
      <text
         transform="scale(0.63226045,1.5816267)"
         sodipodi:linespacing="125%"
         id="text4053"
         y="244.75534"
         x="231.66426"
         style="font-size:63.26506805px;font-style:normal;font-weight:normal;line-height:125%;letter-spacing:0px;word-spacing:0px;fill:#ffffff;fill-opacity:1;stroke:none;font-family:Sans"
         xml:space="preserve"><tspan
           style="font-size:63.26506805px;font-style:normal;font-variant:normal;font-weight:normal;font-stretch:normal;text-align:start;line-height:125%;writing-mode:lr-tb;text-anchor:start;fill:#ffffff;fill-opacity:1;font-family:Saab;-inkscape-font-specification:Saab"
           y="244.75534"
           x="231.66426"
           id="tspan4055"
           sodipodi:role="line">}</tspan></text>
      <text
         transform="scale(0.73284227,1.3645501)"
         sodipodi:linespacing="125%"
         id="text4053-6"
         y="274.013"
         x="85.389008"
         style="font-size:54.58200073px;font-style:normal;font-weight:normal;line-height:125%;letter-spacing:0px;word-spacing:0px;fill:#ffffff;fill-opacity:1;stroke:none;font-family:Sans"
         xml:space="preserve"><tspan
           style="font-size:54.58200073px;font-style:normal;font-variant:normal;font-weight:normal;font-stretch:normal;text-align:start;line-height:125%;writing-mode:lr-tb;text-anchor:start;fill:#ffffff;fill-opacity:1;font-family:Saab;-inkscape-font-specification:Saab"
           y="274.013"
           x="85.389008"
           id="tspan4055-4"
           sodipodi:role="line">}</tspan></text>
      <text
         transform="scale(0.77443737,1.29126)"
         sodipodi:linespacing="125%"
         id="text4053-6-9"
         y="351.84451"
         x="189.06541"
         style="font-size:51.65039825px;font-style:normal;font-weight:normal;line-height:125%;letter-spacing:0px;word-spacing:0px;fill:#ffffff;fill-opacity:1;stroke:none;font-family:Sans"
         xml:space="preserve"><tspan
           style="font-size:51.65039825px;font-style:normal;font-variant:normal;font-weight:normal;font-stretch:normal;text-align:start;line-height:125%;writing-mode:lr-tb;text-anchor:start;fill:#ffffff;fill-opacity:1;font-family:Saab;-inkscape-font-specification:Saab"
           y="351.84451"
           x="189.06541"
           id="tspan4055-4-7"
           sodipodi:role="line">}</tspan></text>
      <text
         sodipodi:linespacing="125%"
         id="text4099"
         y="354.34677"
         x="89.903587"
         style="font-size:40px;font-style:normal;font-weight:normal;line-height:125%;letter-spacing:0px;word-spacing:0px;fill:#ffffff;fill-opacity:1;stroke:none;font-family:Sans"
         xml:space="preserve"><tspan
           style="font-size:14px;font-style:normal;font-variant:normal;font-weight:normal;font-stretch:normal;text-align:start;line-height:125%;writing-mode:lr-tb;text-anchor:start;fill:#ffffff;fill-opacity:1;font-family:Sans;-inkscape-font-specification:Sans"
           y="354.34677"
           x="89.903587"
           id="tspan4101"
           sodipodi:role="line">height1</tspan></text>
      <text
         sodipodi:linespacing="125%"
         id="text4099-4"
         y="437.00098"
         x="173.24068"
         style="font-size:40px;font-style:normal;font-weight:normal;line-height:125%;letter-spacing:0px;word-spacing:0px;fill:#ffffff;fill-opacity:1;stroke:none;font-family:Sans"
         xml:space="preserve"><tspan
           style="font-size:14px;font-style:normal;font-variant:normal;font-weight:normal;font-stretch:normal;text-align:start;line-height:125%;writing-mode:lr-tb;text-anchor:start;fill:#ffffff;fill-opacity:1;font-family:Sans;-inkscape-font-specification:Sans"
           y="437.00098"
           x="173.24068"
           id="tspan4101-2"
           sodipodi:role="line">height2</tspan></text>
      <text
         sodipodi:linespacing="125%"
         id="text4099-8"
         y="360.22937"
         x="172.23053"
         style="font-size:40px;font-style:normal;font-weight:normal;line-height:125%;letter-spacing:0px;word-spacing:0px;fill:#ffffff;fill-opacity:1;stroke:none;font-family:Sans"
         xml:space="preserve"><tspan
           style="font-size:14px;font-style:normal;font-variant:normal;font-weight:normal;font-stretch:normal;text-align:start;line-height:125%;writing-mode:lr-tb;text-anchor:start;fill:#ffffff;fill-opacity:1;font-family:Sans;-inkscape-font-specification:Sans"
           y="360.22937"
           x="172.23053"
           id="tspan4101-29"
           sodipodi:role="line">difference</tspan></text>
    </g>
    <text
       xml:space="preserve"
       style="font-size:40px;font-style:normal;font-weight:normal;line-height:125%;letter-spacing:0px;word-spacing:0px;fill:#fff7f7;fill-opacity:1;stroke:none;font-family:Sans"
       x="176.7767"
       y="604.86462"
       id="text4193"
       sodipodi:linespacing="125%"><tspan
         sodipodi:role="line"
         id="tspan4195"
         x="176.7767"
         y="604.86462"
         style="font-size:14px;font-style:normal;font-variant:normal;font-weight:normal;font-stretch:normal;text-align:start;line-height:125%;writing-mode:lr-tb;text-anchor:start;fill:#fff7f7;fill-opacity:1;font-family:Sans;-inkscape-font-specification:Sans">heigth1 += clamp(difference/2, -height1/2, height2/2)</tspan></text>
  </g>
</svg>
