<?xml version="1.0" encoding="UTF-8" standalone="no"?>
<!-- Created with Inkscape (http://www.inkscape.org/) -->

<svg
   xmlns:dc="http://purl.org/dc/elements/1.1/"
   xmlns:cc="http://creativecommons.org/ns#"
   xmlns:rdf="http://www.w3.org/1999/02/22-rdf-syntax-ns#"
   xmlns:svg="http://www.w3.org/2000/svg"
   xmlns="http://www.w3.org/2000/svg"
   xmlns:sodipodi="http://sodipodi.sourceforge.net/DTD/sodipodi-0.dtd"
   xmlns:inkscape="http://www.inkscape.org/namespaces/inkscape"
   width="744.09448819"
   height="1052.3622047"
   id="svg2"
   version="1.1"
   inkscape:version="0.48.3.1 r9886"
   sodipodi:docname="frontBack.svg">
  <defs
     id="defs4">
    <inkscape:perspective
       sodipodi:type="inkscape:persp3d"
       inkscape:vp_x="-162.4118 : 534.46741 : 1"
       inkscape:vp_y="0 : 1000 : 0"
       inkscape:vp_z="659.57406 : 712.62321 : 1"
       inkscape:persp3d-origin="372.04724 : 350.78739 : 1"
       id="perspective2985" />
  </defs>
  <sodipodi:namedview
     id="base"
     pagecolor="#ffffff"
     bordercolor="#666666"
     borderopacity="1.0"
     inkscape:pageopacity="0.0"
     inkscape:pageshadow="2"
     inkscape:zoom="1.7066854"
     inkscape:cx="331.04251"
     inkscape:cy="595.19883"
     inkscape:document-units="px"
     inkscape:current-layer="layer1"
     showgrid="false"
     inkscape:snap-grids="false"
     inkscape:snap-page="true"
     inkscape:snap-to-guides="false"
     inkscape:window-width="1440"
     inkscape:window-height="824"
     inkscape:window-x="-2"
     inkscape:window-y="-3"
     inkscape:window-maximized="1"
     showguides="false"
     inkscape:snap-global="false"
     inkscape:snap-bbox="true"
     inkscape:bbox-paths="true" />
  <metadata
     id="metadata7">
    <rdf:RDF>
      <cc:Work
         rdf:about="">
        <dc:format>image/svg+xml</dc:format>
        <dc:type
           rdf:resource="http://purl.org/dc/dcmitype/StillImage" />
        <dc:title></dc:title>
      </cc:Work>
    </rdf:RDF>
  </metadata>
  <g
     inkscape:label="Layer 1"
     inkscape:groupmode="layer"
     id="layer1">
    <rect
       style="fill:none;stroke:#000000;stroke-width:1px;stroke-linecap:butt;stroke-linejoin:miter;stroke-opacity:1"
       id="rect3015"
       width="352.16846"
       height="296.65009"
       x="125.12337"
       y="447.46109" />
    <rect
       style="fill:none;stroke:#000000;stroke-width:1px;stroke-linecap:butt;stroke-linejoin:miter;stroke-opacity:1"
       id="rect3015-1"
       width="352.16846"
       height="296.65009"
       x="314.4657"
       y="332.28128" />
    <path
       style="fill:none;stroke:#000000;stroke-width:0.99746245px;stroke-linecap:butt;stroke-linejoin:miter;stroke-opacity:1"
       d="M 125.53643,447.04804 314.46697,332.28002"
       id="path3803"
       inkscape:connector-curvature="0" />
    <path
       style="fill:none;stroke:#000000;stroke-width:1px;stroke-linecap:butt;stroke-linejoin:miter;stroke-opacity:1"
       d="M 125.12338,743.28258 314.05139,628.10278"
       id="path3805"
       inkscape:connector-curvature="0" />
    <path
       style="fill:none;stroke:#000000;stroke-width:1.00434601px;stroke-linecap:butt;stroke-linejoin:miter;stroke-opacity:1"
       d="M 476.46536,744.10904 667.0463,628.93358"
       id="path3807"
       inkscape:connector-curvature="0" />
    <path
       style="fill:none;stroke:#000000;stroke-width:0.99891531px;stroke-linecap:butt;stroke-linejoin:miter;stroke-opacity:1"
       d="M 477.70559,447.46162 667.04901,332.28075"
       id="path3809"
       inkscape:connector-curvature="0" />
    <path
       sodipodi:type="arc"
       style="fill:none"
       id="path3830"
       sodipodi:cx="123.0518"
       sodipodi:cy="592.47162"
       sodipodi:rx="14.501054"
       sodipodi:ry="12.429475"
       d="m 137.55286,592.47162 a 14.501054,12.429475 0 1 1 -29.00211,0 14.501054,12.429475 0 1 1 29.00211,0 z" />
    <path
       sodipodi:type="arc"
       style="fill:#000000;fill-opacity:1"
       id="path3846"
       sodipodi:cx="150.81096"
       sodipodi:cy="566.36975"
       sodipodi:rx="6.929163"
       sodipodi:ry="6.1888642"
       d="m 146.21236,570.99924 a 6.929163,6.1888642 0 1 1 0.12071,0.0934"
       sodipodi:start="2.2964962"
       sodipodi:end="8.5566267"
       sodipodi:open="true"
       transform="translate(-25.488001,2.0507587)" />
    <path
       transform="translate(164.06906,-152.05395)"
       sodipodi:type="arc"
       style="fill:#000000;fill-opacity:1"
       id="path3846-1"
       sodipodi:cx="150.81096"
       sodipodi:cy="566.36975"
       sodipodi:rx="6.929163"
       sodipodi:ry="6.1888642"
       d="m 146.21236,570.99924 a 6.929163,6.1888642 0 1 1 0.12071,0.0934"
       sodipodi:start="2.2964962"
       sodipodi:end="8.5566267"
       sodipodi:open="true" />
    <path
       transform="translate(325.89494,5.9404634)"
       sodipodi:type="arc"
       style="fill:#000000;fill-opacity:1"
       id="path3846-8"
       sodipodi:cx="150.81096"
       sodipodi:cy="566.36975"
       sodipodi:rx="6.929163"
       sodipodi:ry="6.1888642"
       d="m 146.21236,570.99924 a 6.929163,6.1888642 0 1 1 0.12071,0.0934"
       sodipodi:start="2.2964962"
       sodipodi:end="8.5566267"
       sodipodi:open="true" />
    <path
       transform="translate(515.40888,-17.815617)"
       sodipodi:type="arc"
       style="fill:#000000;fill-opacity:1"
       id="path3846-5"
       sodipodi:cx="150.81096"
       sodipodi:cy="566.36975"
       sodipodi:rx="6.929163"
       sodipodi:ry="6.1888642"
       d="m 146.21236,570.99924 a 6.929163,6.1888642 0 1 1 0.12071,0.0934"
       sodipodi:start="2.2964962"
       sodipodi:end="8.5566267"
       sodipodi:open="true" />
    <text
       xml:space="preserve"
       style="font-size:40px;font-style:normal;font-weight:normal;line-height:125%;letter-spacing:0px;word-spacing:0px;fill:#000000;fill-opacity:1;stroke:none;font-family:Sans"
       x="329.29324"
       y="414.28326"
       id="text3909"
       sodipodi:linespacing="125%"><tspan
         sodipodi:role="line"
         id="tspan3911"
         x="329.29324"
         y="414.28326"
         style="font-size:16px;font-style:normal;font-variant:normal;font-weight:normal;font-stretch:normal;text-align:start;line-height:125%;writing-mode:lr-tb;text-anchor:start;font-family:Sans;-inkscape-font-specification:Sans">Cl(0)</tspan></text>
    <text
       xml:space="preserve"
       style="font-size:40px;font-style:normal;font-weight:normal;line-height:125%;letter-spacing:0px;word-spacing:0px;fill:#000000;fill-opacity:1;stroke:none;font-family:Sans"
       x="130.56863"
       y="586.883"
       id="text3909-6"
       sodipodi:linespacing="125%"><tspan
         sodipodi:role="line"
         id="tspan3911-1"
         x="130.56863"
         y="586.883"
         style="font-size:16px;font-style:normal;font-variant:normal;font-weight:normal;font-stretch:normal;text-align:start;line-height:125%;writing-mode:lr-tb;text-anchor:start;font-family:Sans;-inkscape-font-specification:Sans">Cl(1)</tspan></text>
    <text
       xml:space="preserve"
       style="font-size:40px;font-style:normal;font-weight:normal;line-height:125%;letter-spacing:0px;word-spacing:0px;fill:#000000;fill-opacity:1;stroke:none;font-family:Sans"
       x="671.383"
       y="568.13318"
       id="text3909-1"
       sodipodi:linespacing="125%"><tspan
         sodipodi:role="line"
         x="671.383"
         y="568.13318"
         style="font-size:16px;font-style:normal;font-variant:normal;font-weight:normal;font-stretch:normal;text-align:start;line-height:125%;writing-mode:lr-tb;text-anchor:start;font-family:Sans;-inkscape-font-specification:Sans"
         id="tspan3952">Cr(1)</tspan></text>
    <text
       xml:space="preserve"
       style="font-size:40px;font-style:normal;font-weight:normal;line-height:125%;letter-spacing:0px;word-spacing:0px;fill:#000000;fill-opacity:1;stroke:none;font-family:Sans"
       x="482.7132"
       y="593.32825"
       id="text3909-5"
       sodipodi:linespacing="125%"><tspan
         sodipodi:role="line"
         id="tspan3911-4"
         x="482.7132"
         y="593.32825"
         style="font-size:16px;font-style:normal;font-variant:normal;font-weight:normal;font-stretch:normal;text-align:start;line-height:125%;writing-mode:lr-tb;text-anchor:start;font-family:Sans;-inkscape-font-specification:Sans">Cr(0)</tspan></text>
    <path
       transform="translate(173.20892,-57.751595)"
       sodipodi:type="arc"
       style="fill:#000000;fill-opacity:1"
       id="path3846-53-6"
       sodipodi:cx="150.81096"
       sodipodi:cy="566.36975"
       sodipodi:rx="6.929163"
       sodipodi:ry="6.1888642"
       d="m 146.21236,570.99924 a 6.929163,6.1888642 0 1 1 0.12071,0.0934"
       sodipodi:start="2.2964962"
       sodipodi:end="8.5566267"
       sodipodi:open="true" />
    <text
       xml:space="preserve"
       style="font-size:40px;font-style:normal;font-weight:normal;line-height:125%;letter-spacing:0px;word-spacing:0px;fill:#000000;fill-opacity:1;stroke:none;font-family:Sans"
       x="332.2229"
       y="527.95386"
       id="text4019"
       sodipodi:linespacing="125%"><tspan
         sodipodi:role="line"
         id="tspan4021"
         x="332.2229"
         y="527.95386"
         style="font-size:16px;font-style:normal;font-variant:normal;font-weight:normal;font-stretch:normal;text-align:start;line-height:125%;writing-mode:lr-tb;text-anchor:start;font-family:Sans;-inkscape-font-specification:Sans">start</tspan></text>
    <path
       style="fill:none;stroke:#000000;stroke-width:1px;stroke-linecap:butt;stroke-linejoin:miter;stroke-opacity:1"
       d="m 125.38925,566.62533 c 5.93746,-7.35695 11.15516,-9.09317 19.92165,-13.47642 2.26962,-1.1348 5.00497,-3.96731 7.61711,-5.27338 1.01901,-0.5095 2.7471,-0.40337 3.51559,-1.17186 6.01657,-6.01657 15.07444,-10.46688 25.78096,-15.82014 6.65159,-3.32579 13.46841,-8.59098 21.09352,-11.13269 19.38869,-6.46289 51.21055,-6.36706 70.31173,0 8.63132,2.87711 16.11824,9.47426 24.6091,12.30455 1.42557,0.47519 12.96126,12.59422 14.06235,14.06235 7.85498,10.4733 19.81796,18.90121 29.88248,26.95283 1.71749,1.37399 2.83551,3.45282 4.68745,4.68745 13.11758,8.74505 27.5898,17.39963 42.18704,22.26538 3.01235,1.00411 5.59562,3.623 8.78897,4.68745 3.79274,1.26424 17.58472,3.52238 19.33572,5.27338 0.57789,0.57788 4.32625,0.11236 5.27338,0.58593 4.72757,2.36378 10.80687,-3.18977 13.47641,-5.85931 3.61087,-3.61087 8.37527,-12.39067 12.89049,-14.64828 4.44319,-2.22159 7.90267,-6.88099 11.71862,-8.78897 6.24603,-3.12301 13.91245,-5.78436 19.92166,-8.78896"
       id="path4224"
       inkscape:connector-curvature="0" />
    <path
       style="fill:none;stroke:#000000;stroke-width:1px;stroke-linecap:butt;stroke-linejoin:miter;stroke-opacity:1"
       d="m 314.05905,413.69732 c 9.49977,-9.35625 20.40993,-13.99724 31.05435,-21.09352 6.32125,-4.21417 11.81563,-8.83747 18.74979,-12.30455 11.99975,-5.99987 40.93471,-4.28308 52.14787,4.68745 8.70941,6.96753 12.6855,18.66213 16.992,28.71062 0.73058,1.70467 1.13398,4.24632 2.34372,5.85931 10.67868,14.23823 22.15758,25.89177 38.67145,33.39807 3.75025,1.70466 11.91845,4.42553 16.40607,2.92965 2.32136,-0.77378 13.98298,-13.55578 16.99201,-10.54675 2.87078,2.87078 5.71694,8.06067 9.37489,11.71862 7.80852,7.80851 41.70457,16.68526 51.56194,18.16386 4.07383,0.61107 43.83854,5.20252 47.46041,7.6171 9.82056,6.54705 18.01004,22.79025 24.02318,32.81214 7.09445,11.8241 17.93147,22.38653 22.85131,32.22621"
       id="path4226"
       inkscape:connector-curvature="0" />
    <path
       transform="translate(81.803675,-50.720438)"
       sodipodi:type="arc"
       style="fill:#000000;fill-opacity:1"
       id="path3846-53-6-3"
       sodipodi:cx="150.81096"
       sodipodi:cy="566.36975"
       sodipodi:rx="6.929163"
       sodipodi:ry="6.1888642"
       d="m 146.21236,570.99924 a 6.929163,6.1888642 0 1 1 0.12071,0.0934"
       sodipodi:start="2.2964962"
       sodipodi:end="8.5566267"
       sodipodi:open="true" />
    <path
       transform="translate(264.02824,-181.969)"
       sodipodi:type="arc"
       style="fill:#000000;fill-opacity:1"
       id="path3846-53-6-8"
       sodipodi:cx="150.81096"
       sodipodi:cy="566.36975"
       sodipodi:rx="6.929163"
       sodipodi:ry="6.1888642"
       d="m 146.21236,570.99924 a 6.929163,6.1888642 0 1 1 0.12071,0.0934"
       sodipodi:start="2.2964962"
       sodipodi:end="8.5566267"
       sodipodi:open="true" />
    <path
       style="fill:none;stroke:#000000;stroke-width:1px;stroke-linecap:butt;stroke-linejoin:miter;stroke-opacity:1"
       d="M 233.7865,515.64932 417.76885,383.81483"
       id="path4253"
       inkscape:connector-curvature="0" />
    <path
       transform="translate(180.24009,-121.03217)"
       sodipodi:type="arc"
       style="fill:#000000;fill-opacity:1"
       id="path3846-53-6-88"
       sodipodi:cx="150.81096"
       sodipodi:cy="566.36975"
       sodipodi:rx="6.929163"
       sodipodi:ry="6.1888642"
       d="m 146.21236,570.99924 a 6.929163,6.1888642 0 1 1 0.12071,0.0934"
       sodipodi:start="2.2964962"
       sodipodi:end="8.5566267"
       sodipodi:open="true" />
    <text
       xml:space="preserve"
       style="font-size:40px;font-style:normal;font-weight:normal;line-height:125%;letter-spacing:0px;word-spacing:0px;fill:#000000;fill-opacity:1;stroke:none;font-family:Sans"
       x="347.45712"
       y="441.23608"
       id="text4273"
       sodipodi:linespacing="125%"><tspan
         sodipodi:role="line"
         id="tspan4275"
         x="347.45712"
         y="441.23608"
         style="font-size:16px;font-style:normal;font-variant:normal;font-weight:normal;font-stretch:normal;text-align:start;line-height:125%;writing-mode:lr-tb;text-anchor:start;font-family:Sans;-inkscape-font-specification:Sans">frontBack</tspan></text>
    <path
       style="fill:none;stroke:#000000;stroke-width:1px;stroke-linecap:butt;stroke-linejoin:miter;stroke-opacity:1"
       d="m 324.22704,506.86036 6.44524,-56.83532 -9.37489,11.13269"
       id="path4285"
       inkscape:connector-curvature="0" />
    <path
       style="fill:none;stroke:#000000;stroke-width:1.14633429px;stroke-linecap:butt;stroke-linejoin:miter;stroke-opacity:1"
       d="m 331.12422,449.51228 5.19813,13.36563"
       id="path4287"
       inkscape:connector-curvature="0" />
    <path
       style="fill:none;stroke:#000000;stroke-width:1.44602334px;stroke-linecap:butt;stroke-linejoin:miter;stroke-opacity:1"
       d="m 322.10633,461.03751 14.51605,2.17595"
       id="path4289"
       inkscape:connector-curvature="0" />
    <path
       style="fill:#000000;fill-opacity:1"
       d="m 325.75868,460.84712 c -1.71617,-0.25723 -3.12031,-0.47331 -3.12031,-0.48017 0,-0.0212 7.32798,-8.7164 7.332,-8.69995 0.003,0.0132 -1.07901,9.59515 -1.08812,9.63395 -0.002,0.009 -1.11552,-0.15285 -3.12357,-0.45383 z"
       id="path4307"
       inkscape:connector-curvature="0" />
    <path
       style="fill:#000000;fill-opacity:1"
       d="m 332.66996,461.88419 c -1.52535,-0.22922 -2.77585,-0.41947 -2.77888,-0.42277 -0.003,-0.003 0.2471,-2.23167 0.55585,-4.95191 0.30876,-2.72024 0.5615,-4.95318 0.56165,-4.96208 1.9e-4,-0.0119 0.0368,-0.0162 0.13945,-0.0161 l 0.13918,1.2e-4 2.07737,5.34391 c 1.14254,2.93915 2.08503,5.36285 2.09441,5.38599 0.0136,0.0335 0.0137,0.0418 6.8e-4,0.0408 -0.009,-6.9e-4 -1.26436,-0.18879 -2.78971,-0.41802 l 0,0 z"
       id="path4309"
       inkscape:connector-curvature="0" />
    <text
       xml:space="preserve"
       style="font-size:40px;font-style:normal;font-weight:normal;line-height:125%;letter-spacing:0px;word-spacing:0px;fill:#000000;fill-opacity:1;stroke:none;font-family:Sans"
       x="333.98071"
       y="485.18094"
       id="text4311"
       sodipodi:linespacing="125%"><tspan
         sodipodi:role="line"
         id="tspan4313"
         x="333.98071"
         y="485.18094"
         style="font-size:16px;font-style:normal;font-variant:normal;font-weight:normal;font-stretch:normal;text-align:start;line-height:125%;writing-mode:lr-tb;text-anchor:start;font-family:Sans;-inkscape-font-specification:Sans">difference</tspan></text>
  </g>
</svg>
