<?xml version="1.0" encoding="UTF-8" standalone="no"?>
<!-- Created with Inkscape (http://www.inkscape.org/) -->

<svg
   xmlns:dc="http://purl.org/dc/elements/1.1/"
   xmlns:cc="http://creativecommons.org/ns#"
   xmlns:rdf="http://www.w3.org/1999/02/22-rdf-syntax-ns#"
   xmlns:svg="http://www.w3.org/2000/svg"
   xmlns="http://www.w3.org/2000/svg"
   xmlns:sodipodi="http://sodipodi.sourceforge.net/DTD/sodipodi-0.dtd"
   xmlns:inkscape="http://www.inkscape.org/namespaces/inkscape"
   width="744.09448819"
   height="1052.3622047"
   id="svg2"
   version="1.1"
   inkscape:version="0.48.3.1 r9886"
   sodipodi:docname="layerRepresentation1.svg">
  <defs
     id="defs4">
    <inkscape:perspective
       sodipodi:type="inkscape:persp3d"
       inkscape:vp_x="-162.4118 : 534.46741 : 1"
       inkscape:vp_y="0 : 1000 : 0"
       inkscape:vp_z="659.57406 : 712.62321 : 1"
       inkscape:persp3d-origin="372.04724 : 350.78739 : 1"
       id="perspective2985" />
  </defs>
  <sodipodi:namedview
     id="base"
     pagecolor="#ffffff"
     bordercolor="#666666"
     borderopacity="1.0"
     inkscape:pageopacity="0.0"
     inkscape:pageshadow="2"
     inkscape:zoom="1.2068089"
     inkscape:cx="485.47033"
     inkscape:cy="472.13076"
     inkscape:document-units="px"
     inkscape:current-layer="layer1"
     showgrid="false"
     inkscape:snap-grids="false"
     inkscape:snap-page="true"
     inkscape:snap-to-guides="false"
     inkscape:window-width="1440"
     inkscape:window-height="829"
     inkscape:window-x="-2"
     inkscape:window-y="-3"
     inkscape:window-maximized="1" />
  <metadata
     id="metadata7">
    <rdf:RDF>
      <cc:Work
         rdf:about="">
        <dc:format>image/svg+xml</dc:format>
        <dc:type
           rdf:resource="http://purl.org/dc/dcmitype/StillImage" />
        <dc:title></dc:title>
      </cc:Work>
    </rdf:RDF>
  </metadata>
  <g
     inkscape:label="Layer 1"
     inkscape:groupmode="layer"
     id="layer1">
    <rect
       style="fill:none;stroke:#000000;stroke-width:1px;stroke-linecap:butt;stroke-linejoin:miter;stroke-opacity:1"
       id="rect3015-1"
       width="352.16846"
       height="296.65009"
       x="314.43045"
       y="331.89935" />
    <path
       style="fill:none;stroke:#000000;stroke-width:0.99746245px;stroke-linecap:butt;stroke-linejoin:miter;stroke-opacity:1"
       d="M 125.53643,447.04804 314.46697,332.28002"
       id="path3803"
       inkscape:connector-curvature="0" />
    <path
       style="fill:none;stroke:#000000;stroke-width:1px;stroke-linecap:butt;stroke-linejoin:miter;stroke-opacity:1"
       d="M 125.12338,743.28258 314.05139,628.10278"
       id="path3805"
       inkscape:connector-curvature="0" />
    <path
       style="fill:none;stroke:#000000;stroke-width:1.00434601px;stroke-linecap:butt;stroke-linejoin:miter;stroke-opacity:1"
       d="M 476.46536,744.10904 667.0463,628.93358"
       id="path3807"
       inkscape:connector-curvature="0" />
    <path
       style="fill:none;stroke:#000000;stroke-width:2;stroke-linecap:butt;stroke-linejoin:miter;stroke-opacity:1;stroke-miterlimit:4;stroke-dasharray:none"
       d="m 124.31212,518.17714 c 5.74607,-2.71834 8.46748,-4.45885 13.36786,-7.03932 4.09029,-2.15389 14.72578,0 19.21631,0 0.63628,0 3.69944,-0.50343 4.17746,0 4.61389,4.85922 16.00695,8.93881 20.0518,13.19873 17.18099,18.09449 52.18165,39.32446 78.53621,44.87563 13.84339,2.91588 27.84004,-4.18862 40.93909,-6.1594 21.64075,-3.25592 42.70244,-3.98394 64.33286,-9.67906 15.90808,-4.18848 30.91425,-13.70185 46.78753,-18.47821 18.01853,-5.42188 35.48539,-9.81763 52.63597,-15.83845 4.57003,-1.60434 9.39827,-0.98938 12.53238,-2.63975"
       id="path4912"
       inkscape:connector-curvature="0" />
    <path
       style="fill:none;stroke:#000000;stroke-width:2;stroke-linecap:butt;stroke-linejoin:miter;stroke-opacity:1;stroke-miterlimit:4;stroke-dasharray:none;stroke-dashoffset:0"
       d="m 125.14336,605.40648 c 12.19683,5.87383 25.16836,8.8156 38.20807,11.62275 21.89207,4.71288 50.14512,-2.61576 70.60187,1.78813 14.30208,3.07891 30.11205,1.78811 44.85296,1.78811 25.00527,0 49.61212,-0.10874 73.92431,-4.47029 9.01631,-1.61751 18.53508,-0.77158 27.41014,-2.68217 7.98646,-1.71931 18.06184,2.75808 25.74891,0 2.99657,-1.07516 69.71296,-5.39574 71.43248,-4.47029"
       id="path4914"
       inkscape:connector-curvature="0" />
    <path
       style="fill:none;stroke:#000000;stroke-width:2;stroke-linecap:butt;stroke-linejoin:miter;stroke-opacity:1;stroke-miterlimit:4;stroke-dasharray:none"
       d="m 476.46434,516.2364 c 21.68735,5.49923 43.6887,0.21528 62.43573,-9.11476 6.55139,-3.2605 14.91553,-4.93733 21.64439,-8.28616 5.14723,-2.56167 11.75335,-2.53495 16.64952,-4.97169 20.05009,-9.97855 40.93362,-17.54253 57.44086,-33.97322 6.7488,-6.71749 11.86653,-17.82267 16.64953,-27.3443 1.04277,-2.07588 0.58307,-5.30382 1.66496,-7.45755 3.88164,-7.72728 10.30022,-17.19044 13.31961,-23.20122"
       id="path4916"
       inkscape:connector-curvature="0" />
    <path
       style="fill:none;stroke:#000000;stroke-width:2;stroke-linecap:butt;stroke-linejoin:miter;stroke-opacity:1;stroke-miterlimit:4;stroke-dasharray:none"
       d="m 665.98227,402.02638 c -16.67418,-0.8531 -33.31762,0.61639 -49.77276,1.62161 -5.71046,0.34884 -57.34824,-0.75727 -62.21596,1.6216 -0.18514,0.0905 -1.24055,2.15968 -1.65909,2.43241 -1.39949,0.91191 -3.40239,0.23357 -4.97728,0.81081 -5.98477,2.19357 -11.42623,5.91097 -17.42046,8.10802 -13.25826,4.85952 -26.79375,9.13867 -39.81821,14.59446 -21.19884,8.87994 -38.54942,28.67619 -60.55686,34.05373 -15.11434,3.69321 -33.08037,1.62161 -48.94322,1.62161 -21.336,0 -45.16976,0.81081 -65.53414,0.81081 -4.81113,0.19681 -22.01118,0.43296 -24.88639,3.2432 -19.63768,19.19399 -56.79649,13.02695 -85.44324,17.02687 -15.23328,2.12701 -29.53148,8.27008 -43.96594,12.97285 -16.04089,5.22615 -28.77438,6.78952 -35.67048,20.27008"
       id="path4920"
       inkscape:connector-curvature="0" />
    <path
       style="fill:none;stroke:#000000;stroke-width:2;stroke-linecap:butt;stroke-linejoin:miter;stroke-opacity:1;stroke-miterlimit:4;stroke-dasharray:none;stroke-dashoffset:0"
       d="m 477.29182,608.62994 c 12.62644,2.29371 25.63917,0.62903 38.53137,1.24295 6.78224,0.32296 13.96485,1.06594 20.71579,0 9.72792,-1.53599 19.27343,-3.99882 29.00211,-5.80042 13.41261,-2.48382 28.57749,-3.72791 42.26022,-4.97179 20.12816,-1.82984 48.62597,6.74133 58.00421,-12.01516"
       id="path5534"
       inkscape:connector-curvature="0" />
    <path
       style="fill:#aa0000;fill-opacity:1;stroke:none;stroke-width:0.82863164000000000;stroke-miterlimit:4;stroke-opacity:1;stroke-dasharray:none;stroke-dashoffset:0"
       d="m 515.6789,608.77191 c -4.3296,-0.21412 -10.48219,-0.29028 -13.67242,-0.16926 -5.79681,0.2199 -19.93381,-0.31288 -22.47663,-0.84708 l -1.34653,-0.28288 0,-44.74043 0,-44.74043 1.34653,0.24778 c 7.39932,1.3616 18.17061,1.65246 25.584,0.69085 10.09869,-1.30993 20.08953,-4.26506 30.99856,-9.16885 3.57336,-1.60629 9.38687,-3.94265 12.91892,-5.19192 3.53204,-1.24927 8.37953,-3.08832 10.77221,-4.08679 2.39267,-0.99846 6.86262,-2.39398 9.93321,-3.10114 4.95838,-1.14192 6.6732,-1.80061 15.32969,-5.88839 27.85614,-13.15429 37.0993,-18.60056 47.60416,-28.04939 6.18922,-5.56703 9.31825,-10.05855 16.00906,-22.97996 3.35526,-6.47974 4.04293,-8.14759 4.55113,-11.03809 0.65486,-3.72466 1.12929,-4.69941 7.46387,-15.33515 2.10367,-3.53204 4.12088,-6.98122 4.4827,-7.66484 0.60275,-1.13884 0.65924,6.36479 0.67444,89.58279 0.0142,78.12547 -0.0654,90.7943 -0.56942,90.60087 -0.38069,-0.14609 -0.97489,0.4387 -1.69596,1.66911 -2.19077,3.73827 -6.32023,6.5947 -12.21909,8.45219 l -3.52168,1.10894 -20.92295,0.0237 c -19.65325,0.0222 -21.57449,0.0911 -31.65947,1.13455 -18.85201,1.95058 -25.90268,2.99688 -39.81001,5.90767 -21.00197,4.39568 -23.7218,4.66005 -39.77432,3.86618 l 0,10e-6 z"
       id="path5560"
       inkscape:connector-curvature="0" />
    <path
       style="fill:#ff5555;fill-opacity:1;stroke:none;stroke-width:0.82863164000000000;stroke-miterlimit:4;stroke-opacity:1;stroke-dasharray:none;stroke-dashoffset:0"
       d="m 244.47019,619.14218 c -2.1648,-0.21978 -6.54619,-0.88177 -9.73642,-1.47108 -8.03571,-1.48438 -18.88253,-1.71315 -36.87411,-0.7777 -21.74017,1.13034 -28.04898,0.61553 -45.57474,-3.71897 -9.69192,-2.39703 -16.25198,-4.4665 -22.4756,-7.09028 l -3.83138,-1.61525 -0.001,-41.22788 -0.001,-41.22788 1.62382,-2.48244 c 1.55176,-2.37226 1.87064,-2.60937 7.18451,-5.3422 l 5.56067,-2.85976 5.1414,0.27122 c 16.62282,0.87689 14.83492,0.6305 17.00132,2.34294 1.06856,0.84465 4.88014,3.19398 8.47018,5.22075 5.58724,3.1543 7.17145,4.28975 10.99958,7.88379 11.52638,10.82152 24.64487,20.21331 39.61065,28.35807 16.46243,8.95926 32.91089,14.94659 42.83959,15.59385 5.30657,0.34594 10.52465,-0.47504 22.94429,-3.60989 11.91656,-3.00788 14.69441,-3.45455 39.98147,-6.42888 16.82458,-1.97895 25.34394,-3.36453 34.51836,-5.61402 9.17864,-2.25053 12.25972,-3.3861 28.04333,-10.33573 15.28511,-6.73014 18.11399,-7.73163 38.73853,-13.71441 10.25432,-2.97457 23.0256,-6.81203 28.38064,-8.52769 5.7821,-1.85247 11.32652,-3.35833 13.6516,-3.70775 2.15335,-0.32361 4.34405,-0.69602 4.86821,-0.82758 l 0.95303,-0.23919 0,44.73792 0,44.73791 -5.904,0.27793 c -25.43718,1.19743 -55.22544,3.23881 -62.25095,4.26602 -6.93666,1.01423 -10.5866,1.08331 -17.65224,0.33411 -6.26355,-0.66416 -6.65218,-0.65926 -12.42948,0.15674 -3.28007,0.46328 -9.31972,1.05071 -13.42144,1.30541 -4.10173,0.2547 -10.53398,0.92013 -14.2939,1.47875 -14.02301,2.08341 -22.06488,2.87539 -35.00969,3.44781 -13.19315,0.5834 -66.3164,0.88646 -71.05516,0.40536 z"
       id="path5571"
       inkscape:connector-curvature="0" />
    <path
       style="fill:#ff8080;fill-opacity:1;stroke:none"
       d="m 258.88838,567.45499 c -21.62828,-4.97924 -50.40403,-20.754 -71.17318,-39.01687 -4.96419,-4.36515 -10.7439,-8.92029 -12.84379,-10.12253 -2.09989,-1.20223 -5.85238,-3.51735 -8.33886,-5.14471 -4.25639,-2.78572 -5.10478,-3.00731 -14.50106,-3.78746 l -9.98017,-0.82863 24.46841,-8.07519 c 30.10898,-9.93671 35.36069,-11.11935 54.2516,-12.21707 31.80772,-1.84828 39.51024,-2.58713 47.13522,-4.52136 8.36491,-2.12194 15.68565,-5.47332 20.70491,-9.47855 1.76378,-1.40744 4.56041,-2.95893 6.21474,-3.44775 4.16713,-1.23129 51.9069,-2.45037 91.67145,-2.34092 47.4502,0.1306 47.89043,0.0172 77.9127,-20.07209 18.68556,-12.50337 24.94832,-15.60557 49.28226,-24.41147 9.79857,-3.54588 21.67636,-8.24931 26.39509,-10.45207 4.71874,-2.20276 9.35575,-4.00501 10.30449,-4.00501 0.94873,0 2.61778,-0.83899 3.70898,-1.86443 1.9718,-1.85294 2.1965,-1.8677 36.5132,-2.39834 18.99106,-0.29366 41.614,-0.96262 50.2732,-1.48658 14.26667,-0.86327 21.95873,-0.67247 21.95873,0.54466 0,0.24754 -2.57975,4.96904 -5.73278,10.49222 -3.15304,5.52318 -5.99037,11.53369 -6.30519,13.35668 -0.71438,4.13674 -10.21764,22.08718 -14.32432,27.05683 -4.46288,5.40071 -11.17254,11.1322 -19.02126,16.24825 -10.55649,6.88107 -40.7589,21.29018 -49.0405,23.39648 -3.85189,0.97967 -7.76717,2.19172 -8.70064,2.69344 -0.93347,0.50173 -5.98538,2.48719 -11.22647,4.41215 -5.2411,1.92494 -13.07167,5.00152 -17.40127,6.83683 -17.93022,7.60059 -35.35753,9.92131 -50.32575,6.70168 -4.89396,-1.05268 -6.5089,-0.66118 -47.45278,11.50341 -26.75221,7.9482 -30.408,9.24696 -50.20087,17.83442 -16.94405,7.35146 -27.02472,9.85423 -52.13514,12.94378 -28.35993,3.48937 -33.36551,4.28556 -44.7461,7.11732 -13.89368,3.45709 -20.62291,4.08039 -27.34485,2.53288 l 0,0 z"
       id="path5573"
       inkscape:connector-curvature="0" />
    <path
       style="fill:none;stroke:#000000;stroke-width:0.99891531px;stroke-linecap:butt;stroke-linejoin:miter;stroke-opacity:1"
       d="M 476.87695,447.46162 666.22037,332.28075"
       id="path3809"
       inkscape:connector-curvature="0" />
    <rect
       style="fill:none;stroke:#000000;stroke-width:1px;stroke-linecap:butt;stroke-linejoin:miter;stroke-opacity:1"
       id="rect3015"
       width="352.16846"
       height="296.65009"
       x="125.12337"
       y="447.46106" />
  </g>
</svg>
