<?xml version="1.0" encoding="UTF-8" standalone="no"?>
<!-- Created with Inkscape (http://www.inkscape.org/) -->

<svg
   xmlns:dc="http://purl.org/dc/elements/1.1/"
   xmlns:cc="http://creativecommons.org/ns#"
   xmlns:rdf="http://www.w3.org/1999/02/22-rdf-syntax-ns#"
   xmlns:svg="http://www.w3.org/2000/svg"
   xmlns="http://www.w3.org/2000/svg"
   xmlns:sodipodi="http://sodipodi.sourceforge.net/DTD/sodipodi-0.dtd"
   xmlns:inkscape="http://www.inkscape.org/namespaces/inkscape"
   width="744.09448819"
   height="1052.3622047"
   id="svg4546"
   version="1.1"
   inkscape:version="0.48.3.1 r9886"
   sodipodi:docname="layerCreation.pdf">
  <defs
     id="defs4548" />
  <sodipodi:namedview
     id="base"
     pagecolor="#ffffff"
     bordercolor="#666666"
     borderopacity="1.0"
     inkscape:pageopacity="0.0"
     inkscape:pageshadow="2"
     inkscape:zoom="1.4"
     inkscape:cx="375"
     inkscape:cy="691.42857"
     inkscape:document-units="px"
     inkscape:current-layer="layer1"
     showgrid="false"
     inkscape:window-width="1440"
     inkscape:window-height="824"
     inkscape:window-x="-2"
     inkscape:window-y="-3"
     inkscape:window-maximized="1" />
  <metadata
     id="metadata4551">
    <rdf:RDF>
      <cc:Work
         rdf:about="">
        <dc:format>image/svg+xml</dc:format>
        <dc:type
           rdf:resource="http://purl.org/dc/dcmitype/StillImage" />
        <dc:title></dc:title>
      </cc:Work>
    </rdf:RDF>
  </metadata>
  <g
     inkscape:label="Layer 1"
     inkscape:groupmode="layer"
     id="layer1">
    <rect
       style="fill:none;stroke:#000000;stroke-width:0.42616993px;stroke-linecap:butt;stroke-linejoin:miter;stroke-opacity:1"
       id="rect3015"
       width="134.57823"
       height="140.98923"
       x="13.774016"
       y="277.09842" />
    <rect
       style="fill:none;stroke:#000000;stroke-width:0.42616993px;stroke-linecap:butt;stroke-linejoin:miter;stroke-opacity:1"
       id="rect3015-1"
       width="134.57823"
       height="140.98923"
       x="86.129593"
       y="222.35678" />
    <path
       style="fill:none;stroke:#000000;stroke-width:0.42508855px;stroke-linecap:butt;stroke-linejoin:miter;stroke-opacity:1"
       d="M 13.931862,276.90211 86.130076,222.35617"
       id="path3803"
       inkscape:connector-curvature="0" />
    <path
       style="fill:none;stroke:#000000;stroke-width:0.42616993px;stroke-linecap:butt;stroke-linejoin:miter;stroke-opacity:1"
       d="M 13.774019,417.69384 85.971268,362.9522"
       id="path3805"
       inkscape:connector-curvature="0" />
    <path
       style="fill:none;stroke:#000000;stroke-width:0.42802212px;stroke-linecap:butt;stroke-linejoin:miter;stroke-opacity:1"
       d="m 148.03639,418.08663 72.82889,-54.73957"
       id="path3807"
       inkscape:connector-curvature="0" />
    <path
       style="fill:none;stroke:#000000;stroke-width:0.42570773px;stroke-linecap:butt;stroke-linejoin:miter;stroke-opacity:1"
       d="m 148.51033,277.09866 72.35599,-54.74214"
       id="path3809"
       inkscape:connector-curvature="0" />
    <path
       transform="matrix(0.38214156,0,0,0.47527116,-34.040824,64.43306)"
       sodipodi:type="arc"
       style="fill:none"
       id="path3830"
       sodipodi:cx="123.0518"
       sodipodi:cy="592.47162"
       sodipodi:rx="14.501054"
       sodipodi:ry="12.429475"
       d="m 137.55286,592.47162 a 14.501054,12.429475 0 1 1 -29.00211,0 14.501054,12.429475 0 1 1 29.00211,0 z" />
    <path
       sodipodi:type="arc"
       style="fill:#000000;fill-opacity:1"
       id="path3846"
       sodipodi:cx="150.81096"
       sodipodi:cy="566.36975"
       sodipodi:rx="6.929163"
       sodipodi:ry="6.1888642"
       d="m 146.21236,570.99924 a 6.929163,6.1888642 0 1 1 0.12071,0.0934"
       sodipodi:start="2.2964962"
       sodipodi:end="8.5566267"
       sodipodi:open="true"
       transform="matrix(0.38214156,0,0,0.47527116,-43.78085,65.407732)" />
    <path
       transform="matrix(0.38214156,0,0,0.47527116,28.656781,-7.8337906)"
       sodipodi:type="arc"
       style="fill:#000000;fill-opacity:1"
       id="path3846-1"
       sodipodi:cx="150.81096"
       sodipodi:cy="566.36975"
       sodipodi:rx="6.929163"
       sodipodi:ry="6.1888642"
       d="m 146.21236,570.99924 a 6.929163,6.1888642 0 1 1 0.12071,0.0934"
       sodipodi:start="2.2964962"
       sodipodi:end="8.5566267"
       sodipodi:open="true" />
    <path
       transform="matrix(0.38214156,0,0,0.47527116,90.497169,67.256395)"
       sodipodi:type="arc"
       style="fill:#000000;fill-opacity:1"
       id="path3846-8"
       sodipodi:cx="150.81096"
       sodipodi:cy="566.36975"
       sodipodi:rx="6.929163"
       sodipodi:ry="6.1888642"
       d="m 146.21236,570.99924 a 6.929163,6.1888642 0 1 1 0.12071,0.0934"
       sodipodi:start="2.2964962"
       sodipodi:end="8.5566267"
       sodipodi:open="true" />
    <path
       transform="matrix(0.38214156,0,0,0.47527116,162.91833,55.96581)"
       sodipodi:type="arc"
       style="fill:#000000;fill-opacity:1"
       id="path3846-5"
       sodipodi:cx="150.81096"
       sodipodi:cy="566.36975"
       sodipodi:rx="6.929163"
       sodipodi:ry="6.1888642"
       d="m 146.21236,570.99924 a 6.929163,6.1888642 0 1 1 0.12071,0.0934"
       sodipodi:start="2.2964962"
       sodipodi:end="8.5566267"
       sodipodi:open="true" />
    <text
       xml:space="preserve"
       style="font-size:17.04680061px;font-style:normal;font-weight:normal;line-height:125%;letter-spacing:0px;word-spacing:0px;fill:#000000;fill-opacity:1;stroke:none;font-family:Sans"
       x="102.37206"
       y="234.33144"
       id="text3909"
       sodipodi:linespacing="125%"
       transform="scale(0.8966881,1.115215)"><tspan
         sodipodi:role="line"
         id="tspan3911"
         x="102.37206"
         y="234.33144"
         style="font-size:6.81871939px;font-style:normal;font-variant:normal;font-weight:normal;font-stretch:normal;text-align:start;line-height:125%;writing-mode:lr-tb;text-anchor:start;font-family:Sans;-inkscape-font-specification:Sans">Cl(0)</tspan></text>
    <text
       xml:space="preserve"
       style="font-size:17.04680061px;font-style:normal;font-weight:normal;line-height:125%;letter-spacing:0px;word-spacing:0px;fill:#000000;fill-opacity:1;stroke:none;font-family:Sans"
       x="17.681593"
       y="307.88828"
       id="text3909-6"
       sodipodi:linespacing="125%"
       transform="scale(0.8966881,1.115215)"><tspan
         sodipodi:role="line"
         id="tspan3911-1"
         x="17.681593"
         y="307.88828"
         style="font-size:6.81871939px;font-style:normal;font-variant:normal;font-weight:normal;font-stretch:normal;text-align:start;line-height:125%;writing-mode:lr-tb;text-anchor:start;font-family:Sans;-inkscape-font-specification:Sans">Cl(1)</tspan></text>
    <text
       xml:space="preserve"
       style="font-size:17.04680061px;font-style:normal;font-weight:normal;line-height:125%;letter-spacing:0px;word-spacing:0px;fill:#000000;fill-opacity:1;stroke:none;font-family:Sans"
       x="248.16048"
       y="299.89771"
       id="text3909-1"
       sodipodi:linespacing="125%"
       transform="scale(0.8966881,1.115215)"><tspan
         sodipodi:role="line"
         x="248.16048"
         y="299.89771"
         style="font-size:6.81871939px;font-style:normal;font-variant:normal;font-weight:normal;font-stretch:normal;text-align:start;line-height:125%;writing-mode:lr-tb;text-anchor:start;font-family:Sans;-inkscape-font-specification:Sans"
         id="tspan3952">Cr(1)</tspan></text>
    <text
       xml:space="preserve"
       style="font-size:17.04680061px;font-style:normal;font-weight:normal;line-height:125%;letter-spacing:0px;word-spacing:0px;fill:#000000;fill-opacity:1;stroke:none;font-family:Sans"
       x="167.75504"
       y="310.63507"
       id="text3909-5"
       sodipodi:linespacing="125%"
       transform="scale(0.8966881,1.115215)"><tspan
         sodipodi:role="line"
         id="tspan3911-4"
         x="167.75504"
         y="310.63507"
         style="font-size:6.81871939px;font-style:normal;font-variant:normal;font-weight:normal;font-stretch:normal;text-align:start;line-height:125%;writing-mode:lr-tb;text-anchor:start;font-family:Sans;-inkscape-font-specification:Sans">Cr(0)</tspan></text>
    <path
       transform="matrix(0.38214156,0,0,0.47527116,-7.0345072,28.631123)"
       sodipodi:type="arc"
       style="fill:#000000;fill-opacity:1"
       id="path3846-53-0"
       sodipodi:cx="150.81096"
       sodipodi:cy="566.36975"
       sodipodi:rx="6.929163"
       sodipodi:ry="6.1888642"
       d="m 146.21236,570.99924 a 6.929163,6.1888642 0 1 1 0.12071,0.0934"
       sodipodi:start="2.2964962"
       sodipodi:end="8.5566267"
       sodipodi:open="true" />
    <path
       transform="matrix(0.38214156,0,0,0.47527116,131.56493,59.54196)"
       sodipodi:type="arc"
       style="fill:#000000;fill-opacity:1"
       id="path3846-53-8"
       sodipodi:cx="150.81096"
       sodipodi:cy="566.36975"
       sodipodi:rx="6.929163"
       sodipodi:ry="6.1888642"
       d="m 146.21236,570.99924 a 6.929163,6.1888642 0 1 1 0.12071,0.0934"
       sodipodi:start="2.2964962"
       sodipodi:end="8.5566267"
       sodipodi:open="true" />
    <path
       style="fill:none;stroke:#000000;stroke-width:0.44112512px;stroke-linecap:butt;stroke-linejoin:miter;stroke-opacity:1"
       d="m 50.37942,298.37561 139.48165,31.17265"
       id="path4010"
       inkscape:connector-curvature="0" />
    <path
       transform="matrix(0.38214156,0,0,0.47527116,32.149502,36.985397)"
       sodipodi:type="arc"
       style="fill:#000000;fill-opacity:1"
       id="path3846-53-6"
       sodipodi:cx="150.81096"
       sodipodi:cy="566.36975"
       sodipodi:rx="6.929163"
       sodipodi:ry="6.1888642"
       d="m 146.21236,570.99924 a 6.929163,6.1888642 0 1 1 0.12071,0.0934"
       sodipodi:start="2.2964962"
       sodipodi:end="8.5566267"
       sodipodi:open="true" />
    <text
       xml:space="preserve"
       style="font-size:17.04680061px;font-style:normal;font-weight:normal;line-height:125%;letter-spacing:0px;word-spacing:0px;fill:#000000;fill-opacity:1;stroke:none;font-family:Sans"
       x="104.61942"
       y="283.77335"
       id="text4019"
       sodipodi:linespacing="125%"
       transform="scale(0.8966881,1.115215)"><tspan
         sodipodi:role="line"
         id="tspan4021"
         x="104.61942"
         y="283.77335"
         style="font-size:6.81871939px;font-style:normal;font-variant:normal;font-weight:normal;font-stretch:normal;text-align:start;line-height:125%;writing-mode:lr-tb;text-anchor:start;font-family:Sans;-inkscape-font-specification:Sans">start</tspan></text>
    <path
       style="fill:none;stroke:#000000;stroke-width:0.42616993px;stroke-linecap:butt;stroke-linejoin:miter;stroke-opacity:1"
       d="m 13.875619,335.12611 72.546389,-73.2392"
       id="path4201"
       inkscape:connector-curvature="0" />
    <path
       style="fill:none;stroke:#000000;stroke-width:0.42616993px;stroke-linecap:butt;stroke-linejoin:miter;stroke-opacity:1"
       d="m 147.99686,335.96154 72.5464,-10.86056"
       id="path4203"
       inkscape:connector-curvature="0" />
    <rect
       style="fill:none;stroke:#000000;stroke-width:0.42856205px;stroke-linecap:butt;stroke-linejoin:miter;stroke-opacity:1"
       id="rect3015-9"
       width="136.60759"
       height="140.45834"
       x="248.35278"
       y="277.60818" />
    <rect
       style="fill:none;stroke:#000000;stroke-width:0.42856205px;stroke-linecap:butt;stroke-linejoin:miter;stroke-opacity:1"
       id="rect3015-1-9"
       width="136.60759"
       height="140.45834"
       x="321.7995"
       y="223.07266" />
    <path
       style="fill:none;stroke:#000000;stroke-width:0.42747459px;stroke-linecap:butt;stroke-linejoin:miter;stroke-opacity:1"
       d="m 248.51304,277.41258 73.28691,-54.34055"
       id="path3803-2"
       inkscape:connector-curvature="0" />
    <path
       style="fill:none;stroke:#000000;stroke-width:0.42856205px;stroke-linecap:butt;stroke-linejoin:miter;stroke-opacity:1"
       d="m 248.3528,417.67418 73.28594,-54.53551"
       id="path3805-1"
       inkscape:connector-curvature="0" />
    <path
       style="fill:none;stroke:#000000;stroke-width:0.4304246px;stroke-linecap:butt;stroke-linejoin:miter;stroke-opacity:1"
       d="m 384.63979,418.06549 73.92713,-54.53347"
       id="path3807-4"
       inkscape:connector-curvature="0" />
    <path
       style="fill:none;stroke:#000000;stroke-width:0.42809719px;stroke-linecap:butt;stroke-linejoin:miter;stroke-opacity:1"
       d="m 385.12089,277.6084 73.44707,-54.536"
       id="path3809-6"
       inkscape:connector-curvature="0" />
    <path
       transform="matrix(0.3879041,0,0,0.47348156,199.81693,65.743579)"
       sodipodi:type="arc"
       style="fill:none"
       id="path3830-0"
       sodipodi:cx="123.0518"
       sodipodi:cy="592.47162"
       sodipodi:rx="14.501054"
       sodipodi:ry="12.429475"
       d="m 137.55286,592.47162 a 14.501054,12.429475 0 1 1 -29.00211,0 14.501054,12.429475 0 1 1 29.00211,0 z" />
    <path
       sodipodi:type="arc"
       style="fill:#000000;fill-opacity:1"
       id="path3846-85"
       sodipodi:cx="150.81096"
       sodipodi:cy="566.36975"
       sodipodi:rx="6.929163"
       sodipodi:ry="6.1888642"
       d="m 146.21236,570.99924 a 6.929163,6.1888642 0 1 1 0.12071,0.0934"
       sodipodi:start="2.2964962"
       sodipodi:end="8.5566267"
       sodipodi:open="true"
       transform="matrix(0.3879041,0,0,0.47348156,189.93002,66.714586)" />
    <path
       transform="matrix(0.3879041,0,0,0.47348156,263.45999,-6.2511605)"
       sodipodi:type="arc"
       style="fill:#000000;fill-opacity:1"
       id="path3846-1-4"
       sodipodi:cx="150.81096"
       sodipodi:cy="566.36975"
       sodipodi:rx="6.929163"
       sodipodi:ry="6.1888642"
       d="m 146.21236,570.99924 a 6.929163,6.1888642 0 1 1 0.12071,0.0934"
       sodipodi:start="2.2964962"
       sodipodi:end="8.5566267"
       sodipodi:open="true" />
    <path
       transform="matrix(0.3879041,0,0,0.47348156,326.23291,68.556273)"
       sodipodi:type="arc"
       style="fill:#000000;fill-opacity:1"
       id="path3846-8-3"
       sodipodi:cx="150.81096"
       sodipodi:cy="566.36975"
       sodipodi:rx="6.929163"
       sodipodi:ry="6.1888642"
       d="m 146.21236,570.99924 a 6.929163,6.1888642 0 1 1 0.12071,0.0934"
       sodipodi:start="2.2964962"
       sodipodi:end="8.5566267"
       sodipodi:open="true" />
    <path
       transform="matrix(0.3879041,0,0,0.47348156,399.74614,57.308204)"
       sodipodi:type="arc"
       style="fill:#000000;fill-opacity:1"
       id="path3846-5-9"
       sodipodi:cx="150.81096"
       sodipodi:cy="566.36975"
       sodipodi:rx="6.929163"
       sodipodi:ry="6.1888642"
       d="m 146.21236,570.99924 a 6.929163,6.1888642 0 1 1 0.12071,0.0934"
       sodipodi:start="2.2964962"
       sodipodi:end="8.5566267"
       sodipodi:open="true" />
    <text
       xml:space="preserve"
       style="font-size:17.14248276px;font-style:normal;font-weight:normal;line-height:125%;letter-spacing:0px;word-spacing:0px;fill:#000000;fill-opacity:1;stroke:none;font-family:Sans"
       x="361.88324"
       y="237.05252"
       id="text3909-8"
       sodipodi:linespacing="125%"
       transform="scale(0.90512934,1.1048145)"><tspan
         sodipodi:role="line"
         id="tspan3911-7"
         x="361.88324"
         y="237.05252"
         style="font-size:6.85699272px;font-style:normal;font-variant:normal;font-weight:normal;font-stretch:normal;text-align:start;line-height:125%;writing-mode:lr-tb;text-anchor:start;font-family:Sans;-inkscape-font-specification:Sans">Cl(0)</tspan></text>
    <text
       xml:space="preserve"
       style="font-size:17.14248276px;font-style:normal;font-weight:normal;line-height:125%;letter-spacing:0px;word-spacing:0px;fill:#000000;fill-opacity:1;stroke:none;font-family:Sans"
       x="276.71741"
       y="311.02225"
       id="text3909-6-2"
       sodipodi:linespacing="125%"
       transform="scale(0.90512934,1.1048145)"><tspan
         sodipodi:role="line"
         id="tspan3911-1-7"
         x="276.71741"
         y="311.02225"
         style="font-size:6.85699272px;font-style:normal;font-variant:normal;font-weight:normal;font-stretch:normal;text-align:start;line-height:125%;writing-mode:lr-tb;text-anchor:start;font-family:Sans;-inkscape-font-specification:Sans">Cl(1)</tspan></text>
    <text
       xml:space="preserve"
       style="font-size:17.14248276px;font-style:normal;font-weight:normal;line-height:125%;letter-spacing:0px;word-spacing:0px;fill:#000000;fill-opacity:1;stroke:none;font-family:Sans"
       x="508.48996"
       y="302.98679"
       id="text3909-1-9"
       sodipodi:linespacing="125%"
       transform="scale(0.90512934,1.1048145)"><tspan
         sodipodi:role="line"
         x="508.48996"
         y="302.98679"
         style="font-size:6.85699272px;font-style:normal;font-variant:normal;font-weight:normal;font-stretch:normal;text-align:start;line-height:125%;writing-mode:lr-tb;text-anchor:start;font-family:Sans;-inkscape-font-specification:Sans"
         id="tspan3952-4">Cr(1)</tspan></text>
    <text
       xml:space="preserve"
       style="font-size:17.14248276px;font-style:normal;font-weight:normal;line-height:125%;letter-spacing:0px;word-spacing:0px;fill:#000000;fill-opacity:1;stroke:none;font-family:Sans"
       x="427.63318"
       y="313.78445"
       id="text3909-5-4"
       sodipodi:linespacing="125%"
       transform="scale(0.90512934,1.1048145)"><tspan
         sodipodi:role="line"
         id="tspan3911-4-7"
         x="427.63318"
         y="313.78445"
         style="font-size:6.85699272px;font-style:normal;font-variant:normal;font-weight:normal;font-stretch:normal;text-align:start;line-height:125%;writing-mode:lr-tb;text-anchor:start;font-family:Sans;-inkscape-font-specification:Sans">Cr(0)</tspan></text>
    <path
       transform="matrix(0.3879041,0,0,0.47348156,267.00538,38.399261)"
       sodipodi:type="arc"
       style="fill:#000000;fill-opacity:1"
       id="path3846-53-6-37"
       sodipodi:cx="150.81096"
       sodipodi:cy="566.36975"
       sodipodi:rx="6.929163"
       sodipodi:ry="6.1888642"
       d="m 146.21236,570.99924 a 6.929163,6.1888642 0 1 1 0.12071,0.0934"
       sodipodi:start="2.2964962"
       sodipodi:end="8.5566267"
       sodipodi:open="true" />
    <text
       xml:space="preserve"
       style="font-size:17.14248276px;font-style:normal;font-weight:normal;line-height:125%;letter-spacing:0px;word-spacing:0px;fill:#000000;fill-opacity:1;stroke:none;font-family:Sans"
       x="363.13879"
       y="285.7674"
       id="text4019-3"
       sodipodi:linespacing="125%"
       transform="scale(0.90512934,1.1048145)"><tspan
         sodipodi:role="line"
         id="tspan4021-8"
         x="363.13879"
         y="285.7674"
         style="font-size:6.85699272px;font-style:normal;font-variant:normal;font-weight:normal;font-stretch:normal;text-align:start;line-height:125%;writing-mode:lr-tb;text-anchor:start;font-family:Sans;-inkscape-font-specification:Sans">start</tspan></text>
    <path
       style="fill:none;stroke:#000000;stroke-width:0.42856205px;stroke-linecap:butt;stroke-linejoin:miter;stroke-opacity:1"
       d="m 248.45591,334.03024 c 2.30318,-3.48339 4.32716,-4.30547 7.72769,-6.38086 0.88042,-0.53729 1.94147,-1.87843 2.95473,-2.49684 0.39527,-0.24124 1.0656,-0.191 1.3637,-0.55485 2.33386,-2.84873 5.84745,-4.95588 10.00055,-7.49055 2.58019,-1.57472 5.22444,-4.06769 8.18226,-5.27111 7.52096,-3.06008 19.86477,-3.0147 27.27422,0 3.34811,1.36224 6.25232,4.48587 9.54597,5.82597 0.55298,0.22498 5.02772,5.96311 5.45483,6.65826 3.04697,4.95891 7.68748,8.94938 11.59155,12.76168 0.66622,0.65055 1.09989,1.63482 1.81827,2.21941 5.08836,4.1406 10.70218,8.2384 16.36454,10.54224 1.16849,0.47543 2.17056,1.71544 3.40927,2.21941 1.47121,0.59861 6.82118,1.6678 7.50041,2.49686 0.22415,0.27362 1.67816,0.0533 2.04555,0.27744 1.83384,1.1192 4.19203,-1.51031 5.22756,-2.7743 1.40067,-1.70968 3.24881,-5.86673 5.00027,-6.93567 1.72355,-1.05189 3.06548,-3.25801 4.54571,-4.16141 2.42285,-1.4787 5.39668,-2.7388 7.72768,-4.16143"
       id="path4224"
       inkscape:connector-curvature="0" />
    <path
       style="fill:none;stroke:#000000;stroke-width:0.42856205px;stroke-linecap:butt;stroke-linejoin:miter;stroke-opacity:1"
       d="m 321.64172,261.62162 c 3.68499,-4.43 7.91709,-6.62741 12.0461,-9.98739 2.45206,-1.99532 4.58333,-4.18438 7.27312,-5.82598 4.65475,-2.84082 15.87875,-2.02795 20.22838,2.21943 3.37841,3.299 4.92077,8.83619 6.59126,13.59394 0.28339,0.80713 0.43989,2.01057 0.90915,2.77428 4.14231,6.74154 8.59501,12.25928 15.00081,15.81337 1.45473,0.80714 4.62321,2.09543 6.36399,1.38715 0.90045,-0.36636 5.42405,-6.41842 6.59126,-4.99371 1.11358,1.35927 2.21763,3.81659 3.63656,5.54856 3.02897,3.69719 16.17736,7.90016 20.0011,8.60025 1.58023,0.28933 17.00513,2.4633 18.41007,3.60655 3.80942,3.09993 6.98617,10.79077 9.3187,15.53596 2.75196,5.59849 6.95569,10.59959 8.86411,15.25851"
       id="path4226"
       inkscape:connector-curvature="0" />
    <path
       transform="matrix(0.3879041,0,0,0.47348156,231.54891,41.728391)"
       sodipodi:type="arc"
       style="fill:#000000;fill-opacity:1"
       id="path3846-53-6-3"
       sodipodi:cx="150.81096"
       sodipodi:cy="566.36975"
       sodipodi:rx="6.929163"
       sodipodi:ry="6.1888642"
       d="m 146.21236,570.99924 a 6.929163,6.1888642 0 1 1 0.12071,0.0934"
       sodipodi:start="2.2964962"
       sodipodi:end="8.5566267"
       sodipodi:open="true" />
    <path
       transform="matrix(0.3879041,0,0,0.47348156,302.23456,-20.415385)"
       sodipodi:type="arc"
       style="fill:#000000;fill-opacity:1"
       id="path3846-53-6-8"
       sodipodi:cx="150.81096"
       sodipodi:cy="566.36975"
       sodipodi:rx="6.929163"
       sodipodi:ry="6.1888642"
       d="m 146.21236,570.99924 a 6.929163,6.1888642 0 1 1 0.12071,0.0934"
       sodipodi:start="2.2964962"
       sodipodi:end="8.5566267"
       sodipodi:open="true" />
    <path
       style="fill:none;stroke:#000000;stroke-width:0.42856205px;stroke-linecap:butt;stroke-linejoin:miter;stroke-opacity:1"
       d="m 290.50367,309.89403 71.36751,-62.42122"
       id="path4253"
       inkscape:connector-curvature="0" />
    <path
       transform="matrix(0.3879041,0,0,0.47348156,269.73279,8.4370813)"
       sodipodi:type="arc"
       style="fill:#000000;fill-opacity:1"
       id="path3846-53-6-88"
       sodipodi:cx="150.81096"
       sodipodi:cy="566.36975"
       sodipodi:rx="6.929163"
       sodipodi:ry="6.1888642"
       d="m 146.21236,570.99924 a 6.929163,6.1888642 0 1 1 0.12071,0.0934"
       sodipodi:start="2.2964962"
       sodipodi:end="8.5566267"
       sodipodi:open="true" />
    <text
       xml:space="preserve"
       style="font-size:17.14248276px;font-style:normal;font-weight:normal;line-height:125%;letter-spacing:0px;word-spacing:0px;fill:#000000;fill-opacity:1;stroke:none;font-family:Sans"
       x="369.66763"
       y="248.60353"
       id="text4273"
       sodipodi:linespacing="125%"
       transform="scale(0.90512934,1.1048145)"><tspan
         sodipodi:role="line"
         id="tspan4275"
         x="369.66763"
         y="248.60353"
         style="font-size:6.85699272px;font-style:normal;font-variant:normal;font-weight:normal;font-stretch:normal;text-align:start;line-height:125%;writing-mode:lr-tb;text-anchor:start;font-family:Sans;-inkscape-font-specification:Sans">frontBack</tspan></text>
    <path
       style="fill:none;stroke:#000000;stroke-width:0.42856205px;stroke-linecap:butt;stroke-linejoin:miter;stroke-opacity:1"
       d="m 325.58592,305.73261 2.50013,-26.91047 -3.63654,5.27111"
       id="path4285"
       inkscape:connector-curvature="0" />
    <path
       style="fill:none;stroke:#000000;stroke-width:0.49127537px;stroke-linecap:butt;stroke-linejoin:miter;stroke-opacity:1"
       d="m 328.26136,278.57935 2.01639,6.32838"
       id="path4287"
       inkscape:connector-curvature="0" />
    <path
       style="fill:none;stroke:#000000;stroke-width:0.61971074px;stroke-linecap:butt;stroke-linejoin:miter;stroke-opacity:1"
       d="m 324.76329,284.03634 5.63084,1.03026"
       id="path4289"
       inkscape:connector-curvature="0" />
    <path
       style="fill:#000000;fill-opacity:1"
       d="m 326.18006,283.94619 c -0.66571,-0.1218 -1.2104,-0.22411 -1.2104,-0.22735 0,-0.01 2.84257,-4.12706 2.84413,-4.11927 9.6e-4,0.008 -0.41854,4.54313 -0.42209,4.56151 -7.9e-4,0.003 -0.43272,-0.0724 -1.21164,-0.21489 z"
       id="path4307"
       inkscape:connector-curvature="0" />
    <path
       style="fill:#000000;fill-opacity:1"
       d="m 328.86097,284.43722 c -0.59168,-0.10846 -1.07678,-0.1986 -1.07793,-0.20017 -9.5e-4,-9.3e-4 0.0958,-1.05666 0.2156,-2.34464 0.11983,-1.28798 0.21781,-2.34524 0.21787,-2.34946 6e-5,-0.005 0.0141,-0.009 0.054,-0.009 l 0.054,6e-5 0.80581,2.53022 c 0.44319,1.39164 0.80879,2.53923 0.81242,2.55017 0.005,0.0159 0.005,0.0197 2.7e-4,0.0194 -0.004,-3.3e-4 -0.49046,-0.0895 -1.08213,-0.19793 l 0,0 z"
       id="path4309"
       inkscape:connector-curvature="0" />
    <text
       xml:space="preserve"
       style="font-size:17.14248276px;font-style:normal;font-weight:normal;line-height:125%;letter-spacing:0px;word-spacing:0px;fill:#000000;fill-opacity:1;stroke:none;font-family:Sans"
       x="363.89209"
       y="267.43665"
       id="text4311"
       sodipodi:linespacing="125%"
       transform="scale(0.90512934,1.1048145)"><tspan
         sodipodi:role="line"
         id="tspan4313"
         x="363.89209"
         y="267.43665"
         style="font-size:6.85699272px;font-style:normal;font-variant:normal;font-weight:normal;font-stretch:normal;text-align:start;line-height:125%;writing-mode:lr-tb;text-anchor:start;font-family:Sans;-inkscape-font-specification:Sans">difference</tspan></text>
    <rect
       style="fill:none;stroke:#000000;stroke-width:0.43344423px;stroke-linecap:butt;stroke-linejoin:miter;stroke-opacity:1"
       id="rect3015-3"
       width="139.55806"
       height="140.63924"
       x="491.33762"
       y="277.91687" />
    <rect
       style="fill:none;stroke:#000000;stroke-width:0.43344423px;stroke-linecap:butt;stroke-linejoin:miter;stroke-opacity:1"
       id="rect3015-1-5"
       width="139.55806"
       height="140.63924"
       x="566.37061"
       y="223.31113" />
    <path
       style="fill:none;stroke:#000000;stroke-width:0.43234435px;stroke-linecap:butt;stroke-linejoin:miter;stroke-opacity:1"
       d="m 491.5013,277.72104 74.86978,-54.41053"
       id="path3803-8"
       inkscape:connector-curvature="0" />
    <path
       style="fill:none;stroke:#000000;stroke-width:0.43344423px;stroke-linecap:butt;stroke-linejoin:miter;stroke-opacity:1"
       d="M 491.33761,418.16326 566.2064,363.55752"
       id="path3805-15"
       inkscape:connector-curvature="0" />
    <path
       style="fill:none;stroke:#000000;stroke-width:0.43532801px;stroke-linecap:butt;stroke-linejoin:miter;stroke-opacity:1"
       d="m 630.56815,418.55508 75.52381,-54.60369"
       id="path3807-3"
       inkscape:connector-curvature="0" />
    <path
       style="fill:none;stroke:#000000;stroke-width:0.43297407px;stroke-linecap:butt;stroke-linejoin:miter;stroke-opacity:1"
       d="m 631.05963,277.91711 75.03341,-54.60625"
       id="path3809-2"
       inkscape:connector-curvature="0" />
    <path
       transform="matrix(0.3962821,0,0,0.47409132,441.75346,65.779443)"
       sodipodi:type="arc"
       style="fill:none"
       id="path3830-4"
       sodipodi:cx="123.0518"
       sodipodi:cy="592.47162"
       sodipodi:rx="14.501054"
       sodipodi:ry="12.429475"
       d="m 137.55286,592.47162 a 14.501054,12.429475 0 1 1 -29.00211,0 14.501054,12.429475 0 1 1 29.00211,0 z" />
    <path
       sodipodi:type="arc"
       style="fill:#000000;fill-opacity:1"
       id="path3846-53"
       sodipodi:cx="150.81096"
       sodipodi:cy="566.36975"
       sodipodi:rx="6.929163"
       sodipodi:ry="6.1888642"
       d="m 146.21236,570.99924 a 6.929163,6.1888642 0 1 1 0.12071,0.0934"
       sodipodi:start="2.2964962"
       sodipodi:end="8.5566267"
       sodipodi:open="true"
       transform="matrix(0.3962821,0,0,0.47409132,431.65302,66.75169)" />
    <path
       transform="matrix(0.3962821,0,0,0.47409132,506.77109,-6.3080146)"
       sodipodi:type="arc"
       style="fill:#000000;fill-opacity:1"
       id="path3846-1-8"
       sodipodi:cx="150.81096"
       sodipodi:cy="566.36975"
       sodipodi:rx="6.929163"
       sodipodi:ry="6.1888642"
       d="m 146.21236,570.99924 a 6.929163,6.1888642 0 1 1 0.12071,0.0934"
       sodipodi:start="2.2964962"
       sodipodi:end="8.5566267"
       sodipodi:open="true" />
    <path
       transform="matrix(0.3962821,0,0,0.47409132,570.89979,68.595763)"
       sodipodi:type="arc"
       style="fill:#000000;fill-opacity:1"
       id="path3846-8-4"
       sodipodi:cx="150.81096"
       sodipodi:cy="566.36975"
       sodipodi:rx="6.929163"
       sodipodi:ry="6.1888642"
       d="m 146.21236,570.99924 a 6.929163,6.1888642 0 1 1 0.12071,0.0934"
       sodipodi:start="2.2964962"
       sodipodi:end="8.5566267"
       sodipodi:open="true" />
    <path
       transform="matrix(0.3962821,0,0,0.47409132,646.00077,57.333213)"
       sodipodi:type="arc"
       style="fill:#000000;fill-opacity:1"
       id="path3846-5-5"
       sodipodi:cx="150.81096"
       sodipodi:cy="566.36975"
       sodipodi:rx="6.929163"
       sodipodi:ry="6.1888642"
       d="m 146.21236,570.99924 a 6.929163,6.1888642 0 1 1 0.12071,0.0934"
       sodipodi:start="2.2964962"
       sodipodi:end="8.5566267"
       sodipodi:open="true" />
    <text
       xml:space="preserve"
       style="font-size:17.33776855px;font-style:normal;font-weight:normal;line-height:125%;letter-spacing:0px;word-spacing:0px;fill:#000000;fill-opacity:1;stroke:none;font-family:Sans"
       x="600.76715"
       y="235.13698"
       id="text3909-89"
       sodipodi:linespacing="125%"
       transform="scale(0.91426316,1.093777)"><tspan
         sodipodi:role="line"
         id="tspan3911-0"
         x="600.76715"
         y="235.13698"
         style="font-size:6.93510771px;font-style:normal;font-variant:normal;font-weight:normal;font-stretch:normal;text-align:start;line-height:125%;writing-mode:lr-tb;text-anchor:start;font-family:Sans;-inkscape-font-specification:Sans">Cl(0)</tspan></text>
    <text
       xml:space="preserve"
       style="font-size:17.33776855px;font-style:normal;font-weight:normal;line-height:125%;letter-spacing:0px;word-spacing:0px;fill:#000000;fill-opacity:1;stroke:none;font-family:Sans"
       x="539.77399"
       y="314.52078"
       id="text3909-6-20"
       sodipodi:linespacing="125%"
       transform="scale(0.91426316,1.093777)"><tspan
         sodipodi:role="line"
         id="tspan3911-1-0"
         x="539.77399"
         y="314.52078"
         style="font-size:6.93510771px;font-style:normal;font-variant:normal;font-weight:normal;font-stretch:normal;text-align:start;line-height:125%;writing-mode:lr-tb;text-anchor:start;font-family:Sans;-inkscape-font-specification:Sans">Cl(1)</tspan></text>
    <text
       xml:space="preserve"
       style="font-size:17.33776855px;font-style:normal;font-weight:normal;line-height:125%;letter-spacing:0px;word-spacing:0px;fill:#000000;fill-opacity:1;stroke:none;font-family:Sans"
       x="774.18683"
       y="306.39377"
       id="text3909-1-92"
       sodipodi:linespacing="125%"
       transform="scale(0.91426316,1.093777)"><tspan
         sodipodi:role="line"
         x="774.18683"
         y="306.39377"
         style="font-size:6.93510771px;font-style:normal;font-variant:normal;font-weight:normal;font-stretch:normal;text-align:start;line-height:125%;writing-mode:lr-tb;text-anchor:start;font-family:Sans;-inkscape-font-specification:Sans"
         id="tspan3952-7">Cr(1)</tspan></text>
    <text
       xml:space="preserve"
       style="font-size:17.33776855px;font-style:normal;font-weight:normal;line-height:125%;letter-spacing:0px;word-spacing:0px;fill:#000000;fill-opacity:1;stroke:none;font-family:Sans"
       x="692.409"
       y="317.31442"
       id="text3909-5-1"
       sodipodi:linespacing="125%"
       transform="scale(0.91426316,1.093777)"><tspan
         sodipodi:role="line"
         id="tspan3911-4-8"
         x="692.409"
         y="317.31442"
         style="font-size:6.93510771px;font-style:normal;font-variant:normal;font-weight:normal;font-stretch:normal;text-align:start;line-height:125%;writing-mode:lr-tb;text-anchor:start;font-family:Sans;-inkscape-font-specification:Sans">Cr(0)</tspan></text>
    <path
       style="fill:none;stroke:#000000;stroke-width:0.43344423px;stroke-linecap:butt;stroke-linejoin:miter;stroke-opacity:1"
       d="m 491.67517,334.68938 c 0.14914,-2.38537 1.81397,-3.22916 2.55413,-5.00013 0.49122,-1.17532 0.52502,-2.64513 0.92877,-3.6112 0.31719,-0.75892 1.68544,-2.84972 2.32195,-3.6112 1.08375,-1.29655 1.48497,-3.27532 2.08974,-4.72234 0.93099,-2.22757 2.83451,-4.28205 3.7151,-6.38906 5.95919,-14.25851 14.31247,-30.33781 28.09547,-35.83423 2.0942,-0.83514 4.41939,-3.33649 6.50144,-4.16678 3.95916,-1.57884 8.94216,-2.29334 12.53847,-4.44456 1.67511,-1.002 3.70443,-0.0883 5.57266,-0.83335 2.22527,-0.8874 6.24116,-0.26099 8.12679,-1.38892 0.66636,-0.3986 1.07371,-1.66671 2.08974,-1.66671"
       id="path3981"
       inkscape:connector-curvature="0" />
    <path
       style="fill:none;stroke:#000000;stroke-width:0.53710276px;stroke-linecap:butt;stroke-linejoin:miter;stroke-opacity:1"
       d="m 630.20008,336.33319 c 0.3751,-0.17033 2.47332,-2.12058 4.73294,-4.05797 2.19822,-1.88472 4.09921,-5.3979 6.00687,-7.03351 0.83745,-0.71801 1.94292,-0.41029 2.77932,-1.12741 4.25517,-3.64833 8.11035,-5.80238 12.65804,-8.34179 2.48552,-1.38789 4.95533,-3.75761 7.51226,-5.18538 3.31496,-1.85105 11.94854,1.21241 15.32622,2.76287 1.13119,0.51927 13.82955,2.37322 13.9668,2.67292 0.0379,0.0828 10.35254,7.24809 11.64551,8.63899"
       id="path3983"
       inkscape:connector-curvature="0"
       inkscape:transform-center-y="-3.3334184" />
    <path
       transform="matrix(0.3962821,0,0,0.47409132,464.88303,11.454788)"
       sodipodi:type="arc"
       style="fill:#000000;fill-opacity:1"
       id="path3846-53-0-4"
       sodipodi:cx="150.81096"
       sodipodi:cy="566.36975"
       sodipodi:rx="6.929163"
       sodipodi:ry="6.1888642"
       d="m 146.21236,570.99924 a 6.929163,6.1888642 0 1 1 0.12071,0.0934"
       sodipodi:start="2.2964962"
       sodipodi:end="8.5566267"
       sodipodi:open="true" />
    <path
       transform="matrix(0.3962821,0,0,0.47409132,607.91453,42.011117)"
       sodipodi:type="arc"
       style="fill:#000000;fill-opacity:1"
       id="path3846-53-8-0"
       sodipodi:cx="150.81096"
       sodipodi:cy="566.36975"
       sodipodi:rx="6.929163"
       sodipodi:ry="6.1888642"
       d="m 146.21236,570.99924 a 6.929163,6.1888642 0 1 1 0.12071,0.0934"
       sodipodi:start="2.2964962"
       sodipodi:end="8.5566267"
       sodipodi:open="true" />
    <path
       style="fill:none;stroke:#000000;stroke-width:0.43344423px;stroke-linecap:butt;stroke-linejoin:miter;stroke-opacity:1"
       d="m 524.41452,280.52134 142.56711,29.44519"
       id="path4010-1"
       inkscape:connector-curvature="0" />
    <path
       transform="matrix(0.3962821,0,0,0.47409132,517.59107,23.121749)"
       sodipodi:type="arc"
       style="fill:#000000;fill-opacity:1"
       id="path3846-53-6-34"
       sodipodi:cx="150.81096"
       sodipodi:cy="566.36975"
       sodipodi:rx="6.929163"
       sodipodi:ry="6.1888642"
       d="m 146.21236,570.99924 a 6.929163,6.1888642 0 1 1 0.12071,0.0934"
       sodipodi:start="2.2964962"
       sodipodi:end="8.5566267"
       sodipodi:open="true" />
    <text
       xml:space="preserve"
       style="font-size:17.33776855px;font-style:normal;font-weight:normal;line-height:125%;letter-spacing:0px;word-spacing:0px;fill:#000000;fill-opacity:1;stroke:none;font-family:Sans"
       x="607.14246"
       y="276.13443"
       id="text4019-1"
       sodipodi:linespacing="125%"
       transform="scale(0.91426315,1.093777)"><tspan
         sodipodi:role="line"
         id="tspan4021-1"
         x="607.14246"
         y="276.13443"
         style="font-size:6.93510771px;font-style:normal;font-variant:normal;font-weight:normal;font-stretch:normal;text-align:start;line-height:125%;writing-mode:lr-tb;text-anchor:start;font-family:Sans;-inkscape-font-specification:Sans">leftRight</tspan></text>
    <path
       transform="matrix(0.3962821,0,0,0.47409132,520.57171,-5.9471596)"
       sodipodi:type="arc"
       style="fill:#000000;fill-opacity:1"
       id="path3846-53-6-88-9"
       sodipodi:cx="150.81096"
       sodipodi:cy="566.36975"
       sodipodi:rx="6.929163"
       sodipodi:ry="6.1888642"
       d="m 146.21236,570.99924 a 6.929163,6.1888642 0 1 1 0.12071,0.0934"
       sodipodi:start="2.2964962"
       sodipodi:end="8.5566267"
       sodipodi:open="true" />
    <path
       style="fill:none;stroke:#000000;stroke-width:0.43344423px;stroke-linecap:butt;stroke-linejoin:miter;stroke-opacity:1"
       d="m 577.63116,291.73124 2.55414,-26.94514 -3.71511,5.27792"
       id="path4285-6"
       inkscape:connector-curvature="0" />
    <path
       style="fill:none;stroke:#000000;stroke-width:0.49687198px;stroke-linecap:butt;stroke-linejoin:miter;stroke-opacity:1"
       d="m 580.36439,264.54301 2.05992,6.33653"
       id="path4287-9"
       inkscape:connector-curvature="0" />
    <path
       style="fill:none;stroke:#000000;stroke-width:0.6267705px;stroke-linecap:butt;stroke-linejoin:miter;stroke-opacity:1"
       d="m 576.79076,270.00702 5.75245,1.0316"
       id="path4289-0"
       inkscape:connector-curvature="0" />
    <path
       style="fill:#000000;fill-opacity:1"
       d="m 578.23812,269.91676 c -0.68009,-0.12195 -1.23652,-0.22439 -1.23652,-0.22765 0,-0.01 2.90395,-4.13237 2.90554,-4.12457 9.5e-4,0.006 -0.4276,4.54898 -0.43121,4.56738 -7.9e-4,0.004 -0.44206,-0.0725 -1.23781,-0.21516 z"
       id="path4307-3"
       inkscape:connector-curvature="0" />
    <path
       style="fill:#000000;fill-opacity:1"
       d="m 580.97694,270.40842 c -0.60448,-0.10867 -1.10002,-0.19886 -1.10122,-0.20043 -9.5e-4,-10e-4 0.0979,-1.05801 0.22027,-2.34765 0.12235,-1.28965 0.22251,-2.34826 0.22257,-2.35248 8e-5,-0.006 0.0146,-0.008 0.0552,-0.008 l 0.0551,6e-5 0.82322,2.5335 c 0.45277,1.39343 0.82627,2.54248 0.82998,2.55345 0.006,0.0159 0.006,0.0198 2.7e-4,0.0194 -0.004,-3.3e-4 -0.50104,-0.0895 -1.10551,-0.19818 l 0,0 z"
       id="path4309-3"
       inkscape:connector-curvature="0" />
    <text
       xml:space="preserve"
       style="font-size:17.33776855px;font-style:normal;font-weight:normal;line-height:125%;letter-spacing:0px;word-spacing:0px;fill:#000000;fill-opacity:1;stroke:none;font-family:Sans"
       x="639.37036"
       y="239.96239"
       id="text4445"
       sodipodi:linespacing="125%"
       transform="scale(0.91426316,1.093777)"><tspan
         sodipodi:role="line"
         id="tspan4447"
         x="639.37036"
         y="239.96239"
         style="font-size:6.93510771px;font-style:normal;font-variant:normal;font-weight:normal;font-stretch:normal;text-align:start;line-height:125%;writing-mode:lr-tb;text-anchor:start;font-family:Sans;-inkscape-font-specification:Sans">final point</tspan></text>
    <text
       xml:space="preserve"
       style="font-size:17.14248276px;font-style:normal;font-weight:normal;line-height:125%;letter-spacing:0px;word-spacing:0px;fill:#000000;fill-opacity:1;stroke:none;font-family:Sans"
       x="641.71338"
       y="256.83755"
       id="text4311-8"
       sodipodi:linespacing="125%"
       transform="scale(0.90512933,1.1048145)"><tspan
         sodipodi:role="line"
         id="tspan4313-0"
         x="641.71338"
         y="256.83755"
         style="font-size:6.85699272px;font-style:normal;font-variant:normal;font-weight:normal;font-stretch:normal;text-align:start;line-height:125%;writing-mode:lr-tb;text-anchor:start;font-family:Sans;-inkscape-font-specification:Sans">difference</tspan></text>
  </g>
</svg>
